<svg width="600" height="720" viewBox="0 0 600 720" fill="none" xmlns="http://www.w3.org/2000/svg">
<g clip-path="url(#clip0_4461_10375)">
<rect width="600" height="720" rx="16" fill="#F5F4F2"/>
<mask id="mask0_4461_10375" style="mask-type:alpha" maskUnits="userSpaceOnUse" x="-13" y="0" width="626" height="721">
<rect x="-13" width="626" height="721" fill="url(#paint0_radial_4461_10375)"/>
</mask>
<g mask="url(#mask0_4461_10375)">
<path d="M59.5 -15.6914V43.6904L0 73.4404L-59.5 43.6904V-15.6914L0 -45.4414L59.5 -15.6914Z" stroke="#C4C4C4"/>
<path d="M179.5 -15.6914V43.6904L120 73.4404L60.5 43.6904V-15.6914L120 -45.4414L179.5 -15.6914Z" stroke="#C4C4C4"/>
<path d="M299.5 -15.6914V43.6904L240 73.4404L180.5 43.6904V-15.6914L240 -45.4414L299.5 -15.6914Z" stroke="#C4C4C4"/>
<path d="M419.5 -15.6914V43.6904L360 73.4404L300.5 43.6904V-15.6914L360 -45.4414L419.5 -15.6914Z" stroke="#C4C4C4"/>
<path d="M539.5 -15.6914V43.6904L480 73.4404L420.5 43.6904V-15.6914L480 -45.4414L539.5 -15.6914Z" stroke="#C4C4C4"/>
<path d="M659.5 -15.6914V43.6904L600 73.4404L540.5 43.6904V-15.6914L600 -45.4414L659.5 -15.6914Z" stroke="#C4C4C4"/>
<path d="M119.5 74.3086V133.69L60 163.44L0.5 133.69V74.3086L60 44.5586L119.5 74.3086Z" stroke="#C4C4C4"/>
<path d="M239.5 74.3086V133.69L180 163.44L120.5 133.69V74.3086L180 44.5586L239.5 74.3086Z" stroke="#C4C4C4"/>
<path d="M359.5 74.3086V133.69L300 163.44L240.5 133.69V74.3086L300 44.5586L359.5 74.3086Z" stroke="#C4C4C4"/>
<path d="M479.5 74.3086V133.69L420 163.44L360.5 133.69V74.3086L420 44.5586L479.5 74.3086Z" stroke="#C4C4C4"/>
<path d="M599.5 74.3086V133.69L540 163.44L480.5 133.69V74.3086L540 44.5586L599.5 74.3086Z" stroke="#C4C4C4"/>
<path d="M59.5 164.309V223.69L0 253.44L-59.5 223.69V164.309L0 134.559L59.5 164.309Z" stroke="#C4C4C4"/>
<path d="M179.5 164.309V223.69L120 253.44L60.5 223.69V164.309L120 134.559L179.5 164.309Z" stroke="#C4C4C4"/>
<path d="M299.5 164.309V223.69L240 253.44L180.5 223.69V164.309L240 134.559L299.5 164.309Z" stroke="#C4C4C4"/>
<path d="M419.5 164.309V223.69L360 253.44L300.5 223.69V164.309L360 134.559L419.5 164.309Z" stroke="#C4C4C4"/>
<path d="M539.5 164.309V223.69L480 253.44L420.5 223.69V164.309L480 134.559L539.5 164.309Z" stroke="#C4C4C4"/>
<path d="M659.5 164.309V223.69L600 253.44L540.5 223.69V164.309L600 134.559L659.5 164.309Z" stroke="#C4C4C4"/>
<path d="M119.5 254.309V313.69L60 343.44L0.5 313.69V254.309L60 224.559L119.5 254.309Z" stroke="#C4C4C4"/>
<path d="M239.5 254.309V313.69L180 343.44L120.5 313.69V254.309L180 224.559L239.5 254.309Z" stroke="#C4C4C4"/>
<path d="M359.5 254.309V313.69L300 343.44L240.5 313.69V254.309L300 224.559L359.5 254.309Z" stroke="#C4C4C4"/>
<path d="M479.5 254.309V313.69L420 343.44L360.5 313.69V254.309L420 224.559L479.5 254.309Z" stroke="#C4C4C4"/>
<path d="M599.5 254.309V313.69L540 343.44L480.5 313.69V254.309L540 224.559L599.5 254.309Z" stroke="#C4C4C4"/>
<path d="M59.5 344.309V403.69L0 433.44L-59.5 403.69V344.309L0 314.559L59.5 344.309Z" stroke="#C4C4C4"/>
<path d="M179.5 344.309V403.69L120 433.44L60.5 403.69V344.309L120 314.559L179.5 344.309Z" stroke="#C4C4C4"/>
<path d="M299.5 344.309V403.69L240 433.44L180.5 403.69V344.309L240 314.559L299.5 344.309Z" stroke="#C4C4C4"/>
<path d="M419.5 344.309V403.69L360 433.44L300.5 403.69V344.309L360 314.559L419.5 344.309Z" stroke="#C4C4C4"/>
<path d="M539.5 344.309V403.69L480 433.44L420.5 403.69V344.309L480 314.559L539.5 344.309Z" stroke="#C4C4C4"/>
<path d="M659.5 344.309V403.69L600 433.44L540.5 403.69V344.309L600 314.559L659.5 344.309Z" stroke="#C4C4C4"/>
<path d="M119.5 434.309V493.69L60 523.44L0.5 493.69V434.309L60 404.559L119.5 434.309Z" stroke="#C4C4C4"/>
<path d="M239.5 434.309V493.69L180 523.44L120.5 493.69V434.309L180 404.559L239.5 434.309Z" stroke="#C4C4C4"/>
<path d="M359.5 434.309V493.69L300 523.44L240.5 493.69V434.309L300 404.559L359.5 434.309Z" stroke="#C4C4C4"/>
<path d="M479.5 434.309V493.69L420 523.44L360.5 493.69V434.309L420 404.559L479.5 434.309Z" stroke="#C4C4C4"/>
<path d="M599.5 434.309V493.69L540 523.44L480.5 493.69V434.309L540 404.559L599.5 434.309Z" stroke="#C4C4C4"/>
<path d="M59.5 524.309V583.69L0 613.44L-59.5 583.69V524.309L0 494.559L59.5 524.309Z" stroke="#C4C4C4"/>
<path d="M179.5 524.309V583.69L120 613.44L60.5 583.69V524.309L120 494.559L179.5 524.309Z" stroke="#C4C4C4"/>
<path d="M299.5 524.309V583.69L240 613.44L180.5 583.69V524.309L240 494.559L299.5 524.309Z" stroke="#C4C4C4"/>
<path d="M419.5 524.309V583.69L360 613.44L300.5 583.69V524.309L360 494.559L419.5 524.309Z" stroke="#C4C4C4"/>
<path d="M539.5 524.309V583.69L480 613.44L420.5 583.69V524.309L480 494.559L539.5 524.309Z" stroke="#C4C4C4"/>
<path d="M659.5 524.309V583.69L600 613.44L540.5 583.69V524.309L600 494.559L659.5 524.309Z" stroke="#C4C4C4"/>
<path d="M119.5 614.309V673.69L60 703.44L0.5 673.69V614.309L60 584.559L119.5 614.309Z" stroke="#C4C4C4"/>
<path d="M239.5 614.309V673.69L180 703.44L120.5 673.69V614.309L180 584.559L239.5 614.309Z" stroke="#C4C4C4"/>
<path d="M359.5 614.309V673.69L300 703.44L240.5 673.69V614.309L300 584.559L359.5 614.309Z" stroke="#C4C4C4"/>
<path d="M479.5 614.309V673.69L420 703.44L360.5 673.69V614.309L420 584.559L479.5 614.309Z" stroke="#C4C4C4"/>
<path d="M599.5 614.309V673.69L540 703.44L480.5 673.69V614.309L540 584.559L599.5 614.309Z" stroke="#C4C4C4"/>
<path d="M59.5 704.309V763.69L0 793.44L-59.5 763.69V704.309L0 674.559L59.5 704.309Z" stroke="#C4C4C4"/>
<path d="M179.5 704.309V763.69L120 793.44L60.5 763.69V704.309L120 674.559L179.5 704.309Z" stroke="#C4C4C4"/>
<path d="M299.5 704.309V763.69L240 793.44L180.5 763.69V704.309L240 674.559L299.5 704.309Z" stroke="#C4C4C4"/>
<path d="M419.5 704.309V763.69L360 793.44L300.5 763.69V704.309L360 674.559L419.5 704.309Z" stroke="#C4C4C4"/>
<path d="M539.5 704.309V763.69L480 793.44L420.5 763.69V704.309L480 674.559L539.5 704.309Z" stroke="#C4C4C4"/>
<path d="M659.5 704.309V763.69L600 793.44L540.5 763.69V704.309L600 674.559L659.5 704.309Z" stroke="#C4C4C4"/>
</g>
<g clip-path="url(#clip1_4461_10375)">
<rect x="109" y="183" width="240" height="240" rx="120" fill="#FAFAFA"/>
<rect x="109" y="183" width="240" height="240" rx="120" fill="white" fill-opacity="0.03"/>
<rect x="109.912" y="183.912" width="238.175" height="238.175" rx="119.088" stroke="url(#paint1_linear_4461_10375)" stroke-opacity="0.5" stroke-width="1.82493"/>
<g clip-path="url(#clip2_4461_10375)">
<g clip-path="url(#clip3_4461_10375)">
<path d="M228.963 209.211C177.182 209.211 135.213 251.184 135.213 302.961C135.213 354.738 177.182 396.711 228.963 396.711C280.744 396.711 322.713 354.734 322.713 302.961C322.713 251.188 280.74 209.211 228.963 209.211ZM234.638 344.722V355.574C234.638 357.267 233.32 358.499 231.623 358.499H224.389C222.692 358.499 221.325 357.267 221.325 355.574V345.676C214.667 345.374 207.952 343.955 202.868 342.021C200.115 340.976 198.581 338.027 199.311 335.171L200.49 330.577C200.902 328.965 201.979 327.619 203.452 326.864C204.925 326.097 206.654 326.02 208.201 326.611C213.043 328.484 218.763 329.847 224.871 329.847C232.647 329.847 237.971 326.844 237.971 321.385C237.971 316.2 233.606 312.924 223.504 309.509C208.902 304.597 198.903 297.775 198.903 284.536C198.903 272.529 207.401 263.113 221.929 260.245V250.347C221.929 248.654 223.378 247.137 225.075 247.137H232.308C234.006 247.137 235.25 248.654 235.25 250.347V259.286C241.602 259.56 246.188 260.502 250.023 261.751C252.924 262.697 254.637 265.736 253.874 268.698L252.838 272.811C252.434 274.378 251.398 275.708 249.978 276.475C248.558 277.242 246.881 277.38 245.347 276.854C241.863 275.659 237.318 274.573 231.558 274.573C222.688 274.573 219.82 278.396 219.82 282.219C219.82 286.723 224.597 289.587 236.196 293.957C252.434 299.689 258.958 307.196 258.958 319.472C258.954 331.617 250.374 341.996 234.638 344.722Z" fill="#1C1C1C"/>
<path d="M228.963 209.211C177.182 209.211 135.213 251.184 135.213 302.961C135.213 354.738 177.182 396.711 228.963 396.711C280.744 396.711 322.713 354.734 322.713 302.961C322.713 251.188 280.74 209.211 228.963 209.211ZM234.638 344.722V355.574C234.638 357.267 233.32 358.499 231.623 358.499H224.389C222.692 358.499 221.325 357.267 221.325 355.574V345.676C214.667 345.374 207.952 343.955 202.868 342.021C200.115 340.976 198.581 338.027 199.311 335.171L200.49 330.577C200.902 328.965 201.979 327.619 203.452 326.864C204.925 326.097 206.654 326.02 208.201 326.611C213.043 328.484 218.763 329.847 224.871 329.847C232.647 329.847 237.971 326.844 237.971 321.385C237.971 316.2 233.606 312.924 223.504 309.509C208.902 304.597 198.903 297.775 198.903 284.536C198.903 272.529 207.401 263.113 221.929 260.245V250.347C221.929 248.654 223.378 247.137 225.075 247.137H232.308C234.006 247.137 235.25 248.654 235.25 250.347V259.286C241.602 259.56 246.188 260.502 250.023 261.751C252.924 262.697 254.637 265.736 253.874 268.698L252.838 272.811C252.434 274.378 251.398 275.708 249.978 276.475C248.558 277.242 246.881 277.38 245.347 276.854C241.863 275.659 237.318 274.573 231.558 274.573C222.688 274.573 219.82 278.396 219.82 282.219C219.82 286.723 224.597 289.587 236.196 293.957C252.434 299.689 258.958 307.196 258.958 319.472C258.954 331.617 250.374 341.996 234.638 344.722Z" fill="url(#paint2_linear_4461_10375)"/>
</g>
</g>
</g>
<g clip-path="url(#clip4_4461_10375)">
<rect x="252" y="296" width="240" height="240" rx="120" fill="#FAFAFA"/>
<rect x="252" y="296" width="240" height="240" rx="120" fill="white" fill-opacity="0.03"/>
<rect x="252.912" y="296.912" width="238.175" height="238.175" rx="119.088" stroke="url(#paint3_linear_4461_10375)" stroke-opacity="0.5" stroke-width="1.82493"/>
<g clip-path="url(#clip5_4461_10375)">
<path d="M391.83 430.484C391.838 443.733 369.151 442.224 361.922 442.232V418.743C369.158 418.743 391.83 416.666 391.83 430.484ZM465.75 416C465.75 467.775 423.775 509.75 372 509.75C320.225 509.75 278.25 467.775 278.25 416C278.25 364.225 320.225 322.25 372 322.25C423.775 322.25 465.75 364.221 465.75 416ZM397.609 410.525C403.794 407.376 407.662 401.824 406.757 392.581C405.541 379.943 394.636 375.709 380.862 374.501V356.974H370.195V374.04C367.389 374.04 364.522 374.094 361.677 374.153V356.974H351.016V374.497C348.702 374.545 346.435 374.589 344.223 374.589V374.534L329.505 374.53V385.927C329.505 385.927 337.386 385.777 337.254 385.923C341.575 385.923 342.981 388.432 343.392 390.6V410.569C343.692 410.569 344.08 410.584 344.52 410.642C344.164 410.642 343.783 410.642 343.392 410.642V438.614C343.198 439.972 342.399 442.144 339.382 442.147C339.517 442.268 331.625 442.147 331.625 442.147L329.505 454.888H343.388C345.973 454.888 348.515 454.936 351.009 454.95V472.678H361.669V455.137C364.595 455.199 367.426 455.221 370.191 455.218V472.678H380.855V454.983C398.796 453.954 411.349 449.435 412.909 432.593C414.169 419.029 407.786 412.979 397.605 410.532L397.609 410.525ZM386.868 397.345C386.868 384.773 367.946 386.688 361.926 386.688V407.991C367.946 407.991 386.865 409.397 386.868 397.345Z" fill="url(#paint4_linear_4461_10375)"/>
</g>
</g>
</g>
<defs>
<radialGradient id="paint0_radial_4461_10375" cx="0" cy="0" r="1" gradientUnits="userSpaceOnUse" gradientTransform="translate(300 304.022) rotate(90) scale(416.978 362.037)">
<stop stop-color="white" stop-opacity="0.8"/>
<stop offset="1" stop-color="white" stop-opacity="0"/>
</radialGradient>
<linearGradient id="paint1_linear_4461_10375" x1="166.857" y1="121.154" x2="240.595" y2="476.009" gradientUnits="userSpaceOnUse">
<stop stop-color="#FAFAFA"/>
<stop offset="1" stop-color="#FAFAFA" stop-opacity="0"/>
</linearGradient>
<linearGradient id="paint2_linear_4461_10375" x1="162.671" y1="236.669" x2="295.254" y2="369.252" gradientUnits="userSpaceOnUse">
<stop stop-color="#FDE560"/>
<stop offset="1" stop-color="#FF6F00"/>
</linearGradient>
<linearGradient id="paint3_linear_4461_10375" x1="309.857" y1="234.154" x2="383.595" y2="589.009" gradientUnits="userSpaceOnUse">
<stop stop-color="#FAFAFA"/>
<stop offset="1" stop-color="#FAFAFA" stop-opacity="0"/>
</linearGradient>
<linearGradient id="paint4_linear_4461_10375" x1="305.708" y1="349.708" x2="438.292" y2="482.292" gradientUnits="userSpaceOnUse">
<stop stop-color="#FDE560"/>
<stop offset="1" stop-color="#FF6F00"/>
</linearGradient>
<clipPath id="clip0_4461_10375">
<rect width="600" height="720" rx="16" fill="white"/>
</clipPath>
<clipPath id="clip1_4461_10375">
<rect x="109" y="183" width="240" height="240" rx="120" fill="white"/>
</clipPath>
<clipPath id="clip2_4461_10375">
<rect width="187.5" height="187.5" fill="white" transform="translate(135.25 209.25)"/>
</clipPath>
<clipPath id="clip3_4461_10375">
<rect width="187.5" height="187.5" fill="white" transform="translate(135.213 209.211)"/>
</clipPath>
<clipPath id="clip4_4461_10375">
<rect x="252" y="296" width="240" height="240" rx="120" fill="white"/>
</clipPath>
<clipPath id="clip5_4461_10375">
<rect width="187.5" height="187.5" fill="white" transform="translate(278.25 322.25)"/>
</clipPath>
</defs>
</svg>
