<?xml version="1.0" encoding="UTF-8"?><svg id="uuid-08507394-05e3-4954-a9f2-318fa6664f8c" xmlns="http://www.w3.org/2000/svg" viewBox="0 0 261.18 193.11"><defs><style>.uuid-fec62310-1677-4d14-bc92-c8b9e9a574aa{fill:#f8d500;}.uuid-5d8915bf-fb09-4a3b-85e2-d418ad979dd6{fill:#4f3a30;}</style></defs><g id="uuid-bcd1e533-0ff0-4026-9d27-ca6b81bf2ca4"><path class="uuid-5d8915bf-fb09-4a3b-85e2-d418ad979dd6" d="M130.59,70.43c-8.9,0-16.14,7.24-16.14,16.14s7.24,16.14,16.14,16.14,16.14-7.24,16.14-16.14-7.24-16.14-16.14-16.14ZM137.79,77.33c-4.51,1.84-9.56,1.74-13.99-.31,1.92-1.37,4.26-2.18,6.79-2.18,2.72,0,5.21.94,7.2,2.49ZM136,91.95c-1.77-.47-3.58-.71-5.4-.71-1.66,0-3.32.2-4.95.59.9-3.39.94-6.94.11-10.35,3.39.9,6.95.94,10.35.11-.9,3.39-.94,6.95-.11,10.35ZM118.87,86.56c0-2.7.93-5.18,2.47-7.17,2,4.55,1.96,9.71-.07,14.24-1.49-1.97-2.39-4.41-2.39-7.07ZM123.87,96.15c4.31-1.8,9.14-1.79,13.44,0-1.91,1.34-4.22,2.14-6.72,2.14s-4.81-.79-6.72-2.13ZM140.15,93.32c-1.65-4.26-1.57-8.98.22-13.18,1.22,1.85,1.93,4.06,1.93,6.43,0,2.52-.8,4.84-2.16,6.75Z"/><path class="uuid-5d8915bf-fb09-4a3b-85e2-d418ad979dd6" d="M121.27,22.91v2.94c0,.93.76,1.69,1.69,1.69s1.69-.76,1.69-1.69v-2.94c0-.93-.76-1.69-1.69-1.69s-1.69.76-1.69,1.69Z"/><path class="uuid-5d8915bf-fb09-4a3b-85e2-d418ad979dd6" d="M107.18,37.44s.05,0,.07,0c1.35,0,2.46-1.08,2.5-2.43.31-11.45,9.44-20.43,20.85-20.64h0s0,0,0,0c11.41.21,20.53,9.19,20.85,20.64.04,1.36,1.15,2.43,2.5,2.43.02,0,.05,0,.07,0,1.38-.04,2.47-1.19,2.43-2.57-.3-10.98-7.15-20.12-16.79-23.78l1.26-4.11c.15-.49.57-.82,1.08-.93.95-.2,1.78-.85,2.18-1.81.72-1.74-.27-3.76-2.2-4.18-1.2-.26-2.49.26-3.17,1.28-.73,1.09-.66,2.39-.04,3.36.28.43.35.97.1,1.42l-2.16,4.03c-1.95-.49-4-.77-6.1-.8h0s0,0,0,0c-2.11.03-4.15.31-6.1.8l-2.16-4.03c-.24-.45-.17-.99.1-1.42.62-.97.69-2.27-.04-3.36-.68-1.02-1.97-1.54-3.17-1.28-1.93.42-2.93,2.44-2.2,4.18.4.96,1.24,1.61,2.18,1.81.5.11.93.44,1.08.93l1.26,4.11c-9.64,3.67-16.49,12.81-16.79,23.78-.04,1.38,1.05,2.53,2.43,2.57Z"/><path class="uuid-5d8915bf-fb09-4a3b-85e2-d418ad979dd6" d="M136.54,22.91v2.94c0,.93.76,1.69,1.69,1.69s1.69-.76,1.69-1.69v-2.94c0-.93-.76-1.69-1.69-1.69s-1.69.76-1.69,1.69Z"/><path class="uuid-5d8915bf-fb09-4a3b-85e2-d418ad979dd6" d="M175.1,50.54c-5.32-3.31-12.84-7.19-19.62-10.5-2.1-1.04-4.13-2.02-6-2.91-4.71-2.24-8.41-3.92-9.69-4.49-.06-.03-.12-.06-.18-.08-.04,0-.09-.01-.13-.01-.15,0-.28.06-.38.16-.03.03-.06.07-.08.1-.05.09-.08.19-.08.29,0,.19.09.35.24.45.01,0,.02.01.03.02,3.92,2.52,29.16,18.71,32.6,20.62,10.67,5.94,8.13,14.74,5.91,16.84-6.55,6.22-12.86-.44-15.94-4.23-2.13-2.63-5.12-6.36-8.4-10.5-1.67-2.09-3.41-4.28-5.15-6.49-1.65-2.08-3.31-4.17-4.91-6.19-1.8-2.29-3.54-4.49-5.12-6.49-1.8-2.29-3.4-4.31-4.66-5.91-1.51-1.91-4.39-1.91-5.9,0-1.26,1.6-2.86,3.62-4.66,5.91-1.58,2-3.32,4.2-5.12,6.49-1.6,2.02-3.26,4.11-4.91,6.19-1.74,2.21-3.48,4.4-5.15,6.49-3.28,4.14-6.27,7.87-8.4,10.5-3.08,3.79-9.39,10.45-15.94,4.23-2.22-2.1-4.76-10.9,5.91-16.84,3.45-1.91,28.77-18.16,32.62-20.64.14-.1.24-.26.24-.45,0-.11-.04-.22-.09-.31-.1-.14-.27-.23-.46-.24-.09,0-.23.06-.3.09-1.29.58-4.98,2.26-9.68,4.49-1.87.89-3.9,1.87-6,2.91-6.78,3.31-14.3,7.19-19.62,10.5-10.96,6.8-13.1,16.5-6.2,24.28,6.84,7.73,16.73,2.96,18.94,1.54.41-.26.81-.55,1.19-.85-.23,1.51-.35,3.04-.35,4.59,0,16.97,13.81,30.77,30.78,30.77h.3c16.97,0,30.78-13.8,30.78-30.77,0-1.55-.12-3.08-.35-4.59.38.3.78.59,1.19.85,2.21,1.42,12.1,6.19,18.94-1.54,6.9-7.78,4.76-17.48-6.2-24.28ZM122.77,43.62h7.82l.02-.06v.06h7.8l4.74,6.19h-25.12l4.74-6.19ZM116.67,56.3h13.92v-.13l.02.13h13.9l4.74,6.2h-37.32l4.74-6.2ZM130.74,105.54h-.3c-14.03,0-25.44-11.41-25.44-25.44,0-3.87.87-7.67,2.56-11.12h46.06c1.69,3.45,2.56,7.25,2.56,11.12,0,14.03-11.41,25.44-25.44,25.44Z"/><path class="uuid-fec62310-1677-4d14-bc92-c8b9e9a574aa" d="M144.48,148.78v-7.85h-26.16v15.69h27.79c1.97,2.86,9.75,9.44,9.75,9.44v17.36l-9.06,9.43-29.16.14-10.2-9.37v-7.62h10.88v7.85h27.09v-17.54h-27.09c-2.17-2.19-9.52-8.98-9.52-8.98v-16.09l8.83-9.32h29.16l9.06,9.11v7.73h-11.37Z"/><polygon class="uuid-fec62310-1677-4d14-bc92-c8b9e9a574aa" points="40.29 131.7 26.05 159.4 10.88 131.7 0 131.7 20.79 168.77 20.79 193.11 31.01 193.11 31.01 193.09 31.03 193.09 31.03 168.77 51.87 131.7 40.29 131.7"/><polygon class="uuid-fec62310-1677-4d14-bc92-c8b9e9a574aa" points="81.29 131.77 69.22 131.77 45.67 193.09 56.51 193.09 63 175.31 82.9 175.19 79.62 165.86 66.48 165.86 74.72 141.86 93.35 193.09 105.12 193.09 81.29 131.77"/><path class="uuid-fec62310-1677-4d14-bc92-c8b9e9a574aa" d="M206.1,162.33l5.89-6.96v-14.12s-9.39-9.56-9.39-9.56h-37.28v61.39h33.52v-9.23h-22.87v-17.54h22.87v-9.69h-22.87v-15.69h26.4l-.05,52.16h3.06l7.66-9.56v-13.32s-5.29-5.91-6.94-7.89Z"/><path class="uuid-fec62310-1677-4d14-bc92-c8b9e9a574aa" d="M252.52,143.8l-20.77-.12s-9.43,9.13-9.43,9.12c0,9.52,0,30.4,0,30.4l8.04,9.8h22.62l8.2-6.13v-2.12l-29.17.03v-11.52h16.32v-8.32h-16.32v-12.47h19.91l-.02,20.79h3.51l5.78-7.13v-13.89l-8.66-8.44Z"/></g></svg>