<svg width="416" height="350" viewBox="0 0 416 350" fill="none" xmlns="http://www.w3.org/2000/svg">
<g clip-path="url(#clip0_4461_25176)">
<rect width="416" height="350" rx="16" fill="#1C1C1C"/>
<path d="M71 186L191 186" stroke="url(#paint0_linear_4461_25176)" stroke-width="1.5"/>
<path d="M231 186L336 186" stroke="url(#paint1_linear_4461_25176)" stroke-width="1.5"/>
<path d="M0 53H31C53.0914 53 71 70.9086 71 93V155.708V172" stroke="url(#paint2_linear_4461_25176)" stroke-width="1.5"/>
<path d="M416 53H385C362.909 53 345 70.9086 345 93V153.982V170" stroke="url(#paint3_linear_4461_25176)" stroke-width="1.5"/>
<path d="M416 53H383.839C362.389 53 345 70.3889 345 91.8393V91.8393V98" stroke="url(#paint4_linear_4461_25176)" stroke-width="2"/>
<path d="M0 297H31C53.0914 297 71 279.091 71 257V217.595V205" stroke="url(#paint5_linear_4461_25176)" stroke-width="1.5"/>
<path d="M416 297H385C362.909 297 345 279.091 345 257V216.732V204" stroke="url(#paint6_linear_4461_25176)" stroke-width="1.5"/>
<g filter="url(#filter0_f_4461_25176)">
<path fill-rule="evenodd" clip-rule="evenodd" d="M305.833 559.089C301.502 579.498 271.417 587.049 246.253 591.833C224.593 595.951 197.963 580.301 175.961 583.782C141.389 589.254 120.059 635.151 85.6516 617.249C51.203 599.325 91.4533 558.892 73.1507 530.289C57.1728 505.318 6.94508 499.195 -6.23014 473.654C-19.7464 447.451 -16.5669 415.412 5.93008 399.974C28.6568 384.378 70.1955 399.008 103.324 398.475C129.044 398.06 152.39 392.634 178.9 397.188C208.469 402.267 245.239 405.143 263.909 426.061C283.194 447.669 259.098 471.462 266.688 495.547C273.742 517.93 310.244 538.306 305.833 559.089Z" fill="#FFCA00"/>
</g>
<rect x="144" y="111" width="128" height="128" rx="64" fill="white" fill-opacity="0.03"/>
<rect x="144.487" y="111.487" width="127.027" height="127.027" rx="63.5134" stroke="url(#paint7_linear_4461_25176)" stroke-opacity="0.5" stroke-width="0.973296"/>
<g clip-path="url(#clip1_4461_25176)">
<g clip-path="url(#clip2_4461_25176)">
<path d="M207.98 124.979C180.364 124.979 157.98 147.365 157.98 174.979C157.98 202.593 180.364 224.979 207.98 224.979C235.597 224.979 257.98 202.591 257.98 174.979C257.98 147.367 235.595 124.979 207.98 124.979ZM211.007 197.252V203.039C211.007 203.942 210.304 204.6 209.399 204.6H205.541C204.636 204.6 203.907 203.942 203.907 203.039V197.761C200.356 197.6 196.775 196.842 194.063 195.811C192.595 195.254 191.777 193.681 192.166 192.158L192.795 189.708C193.015 188.848 193.589 188.13 194.375 187.728C195.16 187.319 196.083 187.277 196.907 187.593C199.49 188.591 202.541 189.318 205.798 189.318C209.945 189.318 212.785 187.717 212.785 184.805C212.785 182.04 210.457 180.293 205.069 178.471C197.282 175.852 191.948 172.213 191.948 165.153C191.948 158.749 196.481 153.727 204.229 152.197V146.919C204.229 146.016 205.002 145.206 205.907 145.206H209.765C210.67 145.206 211.334 146.016 211.334 146.919V151.686C214.721 151.832 217.167 152.334 219.212 153C220.76 153.505 221.673 155.126 221.267 156.706L220.714 158.899C220.498 159.735 219.946 160.444 219.189 160.853C218.431 161.262 217.537 161.336 216.719 161.055C214.861 160.418 212.437 159.839 209.364 159.839C204.634 159.839 203.104 161.878 203.104 163.917C203.104 166.319 205.652 167.846 211.838 170.177C220.498 173.234 223.978 177.238 223.978 183.785C223.976 190.263 219.4 195.798 211.007 197.252Z" fill="#1C1C1C"/>
<path d="M207.98 124.979C180.364 124.979 157.98 147.365 157.98 174.979C157.98 202.593 180.364 224.979 207.98 224.979C235.597 224.979 257.98 202.591 257.98 174.979C257.98 147.367 235.595 124.979 207.98 124.979ZM211.007 197.252V203.039C211.007 203.942 210.304 204.6 209.399 204.6H205.541C204.636 204.6 203.907 203.942 203.907 203.039V197.761C200.356 197.6 196.775 196.842 194.063 195.811C192.595 195.254 191.777 193.681 192.166 192.158L192.795 189.708C193.015 188.848 193.589 188.13 194.375 187.728C195.16 187.319 196.083 187.277 196.907 187.593C199.49 188.591 202.541 189.318 205.798 189.318C209.945 189.318 212.785 187.717 212.785 184.805C212.785 182.04 210.457 180.293 205.069 178.471C197.282 175.852 191.948 172.213 191.948 165.153C191.948 158.749 196.481 153.727 204.229 152.197V146.919C204.229 146.016 205.002 145.206 205.907 145.206H209.765C210.67 145.206 211.334 146.016 211.334 146.919V151.686C214.721 151.832 217.167 152.334 219.212 153C220.76 153.505 221.673 155.126 221.267 156.706L220.714 158.899C220.498 159.735 219.946 160.444 219.189 160.853C218.431 161.262 217.537 161.336 216.719 161.055C214.861 160.418 212.437 159.839 209.364 159.839C204.634 159.839 203.104 161.878 203.104 163.917C203.104 166.319 205.652 167.846 211.838 170.177C220.498 173.234 223.978 177.238 223.978 183.785C223.976 190.263 219.4 195.798 211.007 197.252Z" fill="url(#paint8_linear_4461_25176)"/>
</g>
</g>
<rect x="40" y="158" width="60" height="60" rx="30" fill="white" fill-opacity="0.03"/>
<rect x="40.2281" y="158.228" width="59.5438" height="59.5438" rx="29.7719" stroke="url(#paint9_linear_4461_25176)" stroke-opacity="0.5" stroke-width="0.456232"/>
<path d="M70 165C57.2964 165 47 175.297 47 188C47 200.703 57.2964 211 70 211C82.7036 211 93 200.702 93 188C93 175.298 82.7026 165 70 165ZM71.3923 198.245V200.908C71.3923 201.323 71.069 201.625 70.6526 201.625H68.878C68.4616 201.625 68.1263 201.323 68.1263 200.908V198.48C66.4928 198.406 64.8453 198.057 63.5982 197.583C62.9225 197.327 62.5462 196.603 62.7254 195.902L63.0146 194.775C63.1157 194.38 63.38 194.05 63.7413 193.864C64.1026 193.676 64.527 193.657 64.9063 193.802C66.0944 194.262 67.4977 194.596 68.9961 194.596C70.9038 194.596 72.21 193.859 72.21 192.52C72.21 191.248 71.139 190.444 68.6608 189.606C65.0785 188.401 62.6253 186.728 62.6253 183.48C62.6253 180.534 64.7102 178.224 68.2744 177.52V175.092C68.2744 174.677 68.6297 174.304 69.0461 174.304H70.8207C71.2371 174.304 71.5424 174.677 71.5424 175.092V177.285C73.1008 177.352 74.2259 177.583 75.1667 177.89C75.8784 178.122 76.2987 178.868 76.1116 179.594L75.8573 180.603C75.7583 180.988 75.504 181.314 75.1557 181.502C74.8074 181.69 74.396 181.724 74.0197 181.595C73.1649 181.302 72.0499 181.036 70.6366 181.036C68.4606 181.036 67.757 181.973 67.757 182.911C67.757 184.016 68.929 184.719 71.7746 185.791C75.7583 187.197 77.3587 189.039 77.3587 192.051C77.3577 195.03 75.2528 197.577 71.3923 198.245Z" fill="#1C1C1C"/>
<path d="M70 165C57.2964 165 47 175.297 47 188C47 200.703 57.2964 211 70 211C82.7036 211 93 200.702 93 188C93 175.298 82.7026 165 70 165ZM71.3923 198.245V200.908C71.3923 201.323 71.069 201.625 70.6526 201.625H68.878C68.4616 201.625 68.1263 201.323 68.1263 200.908V198.48C66.4928 198.406 64.8453 198.057 63.5982 197.583C62.9225 197.327 62.5462 196.603 62.7254 195.902L63.0146 194.775C63.1157 194.38 63.38 194.05 63.7413 193.864C64.1026 193.676 64.527 193.657 64.9063 193.802C66.0944 194.262 67.4977 194.596 68.9961 194.596C70.9038 194.596 72.21 193.859 72.21 192.52C72.21 191.248 71.139 190.444 68.6608 189.606C65.0785 188.401 62.6253 186.728 62.6253 183.48C62.6253 180.534 64.7102 178.224 68.2744 177.52V175.092C68.2744 174.677 68.6297 174.304 69.0461 174.304H70.8207C71.2371 174.304 71.5424 174.677 71.5424 175.092V177.285C73.1008 177.352 74.2259 177.583 75.1667 177.89C75.8784 178.122 76.2987 178.868 76.1116 179.594L75.8573 180.603C75.7583 180.988 75.504 181.314 75.1557 181.502C74.8074 181.69 74.396 181.724 74.0197 181.595C73.1649 181.302 72.0499 181.036 70.6366 181.036C68.4606 181.036 67.757 181.973 67.757 182.911C67.757 184.016 68.929 184.719 71.7746 185.791C75.7583 187.197 77.3587 189.039 77.3587 192.051C77.3577 195.03 75.2528 197.577 71.3923 198.245Z" fill="url(#paint10_linear_4461_25176)"/>
<rect x="316" y="158" width="60" height="60" rx="30" fill="white" fill-opacity="0.03"/>
<rect x="316.228" y="158.228" width="59.5438" height="59.5438" rx="29.7719" stroke="url(#paint11_linear_4461_25176)" stroke-opacity="0.5" stroke-width="0.456232"/>
<path d="M346 165C333.296 165 323 175.297 323 188C323 200.703 333.296 211 346 211C358.704 211 369 200.702 369 188C369 175.298 358.703 165 346 165ZM347.392 198.245V200.908C347.392 201.323 347.069 201.625 346.653 201.625H344.878C344.462 201.625 344.126 201.323 344.126 200.908V198.48C342.493 198.406 340.845 198.057 339.598 197.583C338.923 197.327 338.546 196.603 338.725 195.902L339.015 194.775C339.116 194.38 339.38 194.05 339.741 193.864C340.103 193.676 340.527 193.657 340.906 193.802C342.094 194.262 343.498 194.596 344.996 194.596C346.904 194.596 348.21 193.859 348.21 192.52C348.21 191.248 347.139 190.444 344.661 189.606C341.079 188.401 338.625 186.728 338.625 183.48C338.625 180.534 340.71 178.224 344.274 177.52V175.092C344.274 174.677 344.63 174.304 345.046 174.304H346.821C347.237 174.304 347.542 174.677 347.542 175.092V177.285C349.101 177.352 350.226 177.583 351.167 177.89C351.878 178.122 352.299 178.868 352.112 179.594L351.857 180.603C351.758 180.988 351.504 181.314 351.156 181.502C350.807 181.69 350.396 181.724 350.02 181.595C349.165 181.302 348.05 181.036 346.637 181.036C344.461 181.036 343.757 181.973 343.757 182.911C343.757 184.016 344.929 184.719 347.775 185.791C351.758 187.197 353.359 189.039 353.359 192.051C353.358 195.03 351.253 197.577 347.392 198.245Z" fill="#1C1C1C"/>
<path d="M346 165C333.296 165 323 175.297 323 188C323 200.703 333.296 211 346 211C358.704 211 369 200.702 369 188C369 175.298 358.703 165 346 165ZM347.392 198.245V200.908C347.392 201.323 347.069 201.625 346.653 201.625H344.878C344.462 201.625 344.126 201.323 344.126 200.908V198.48C342.493 198.406 340.845 198.057 339.598 197.583C338.923 197.327 338.546 196.603 338.725 195.902L339.015 194.775C339.116 194.38 339.38 194.05 339.741 193.864C340.103 193.676 340.527 193.657 340.906 193.802C342.094 194.262 343.498 194.596 344.996 194.596C346.904 194.596 348.21 193.859 348.21 192.52C348.21 191.248 347.139 190.444 344.661 189.606C341.079 188.401 338.625 186.728 338.625 183.48C338.625 180.534 340.71 178.224 344.274 177.52V175.092C344.274 174.677 344.63 174.304 345.046 174.304H346.821C347.237 174.304 347.542 174.677 347.542 175.092V177.285C349.101 177.352 350.226 177.583 351.167 177.89C351.878 178.122 352.299 178.868 352.112 179.594L351.857 180.603C351.758 180.988 351.504 181.314 351.156 181.502C350.807 181.69 350.396 181.724 350.02 181.595C349.165 181.302 348.05 181.036 346.637 181.036C344.461 181.036 343.757 181.973 343.757 182.911C343.757 184.016 344.929 184.719 347.775 185.791C351.758 187.197 353.359 189.039 353.359 192.051C353.358 195.03 351.253 197.577 347.392 198.245Z" fill="url(#paint12_linear_4461_25176)"/>
<path d="M71 90L71 139" stroke="url(#paint13_linear_4461_25176)" stroke-width="2" stroke-linecap="round"/>
<path d="M-3 297H28" stroke="url(#paint14_linear_4461_25176)" stroke-width="2" stroke-linecap="round"/>
<path d="M113 186H132" stroke="url(#paint15_linear_4461_25176)" stroke-width="2" stroke-linecap="round"/>
<path d="M303 186H284" stroke="url(#paint16_linear_4461_25176)" stroke-width="2" stroke-linecap="round"/>
<path d="M345 260L345 219" stroke="url(#paint17_linear_4461_25176)" stroke-width="2" stroke-linecap="round"/>
</g>
<defs>
<filter id="filter0_f_4461_25176" x="-268.271" y="138.76" width="828.473" height="736.609" filterUnits="userSpaceOnUse" color-interpolation-filters="sRGB">
<feFlood flood-opacity="0" result="BackgroundImageFix"/>
<feBlend mode="normal" in="SourceGraphic" in2="BackgroundImageFix" result="shape"/>
<feGaussianBlur stdDeviation="127" result="effect1_foregroundBlur_4461_25176"/>
</filter>
<linearGradient id="paint0_linear_4461_25176" x1="71" y1="186" x2="191" y2="186" gradientUnits="userSpaceOnUse">
<stop offset="0.0970579" stop-color="#313131"/>
<stop offset="0.5" stop-color="#FFCA00" stop-opacity="0.1"/>
<stop offset="0.9" stop-color="#313131"/>
</linearGradient>
<linearGradient id="paint1_linear_4461_25176" x1="231" y1="186" x2="336" y2="186" gradientUnits="userSpaceOnUse">
<stop offset="0.0970579" stop-color="#313131"/>
<stop offset="0.5" stop-color="#FFCA00" stop-opacity="0.1"/>
<stop offset="0.9" stop-color="#313131"/>
</linearGradient>
<linearGradient id="paint2_linear_4461_25176" x1="0" y1="53" x2="167" y2="53" gradientUnits="userSpaceOnUse">
<stop offset="0.0970579" stop-color="#313131"/>
<stop offset="0.5" stop-color="#FFCA00" stop-opacity="0.1"/>
<stop offset="0.9" stop-color="#313131"/>
</linearGradient>
<linearGradient id="paint3_linear_4461_25176" x1="416" y1="53" x2="249" y2="53" gradientUnits="userSpaceOnUse">
<stop offset="0.0970579" stop-color="#313131"/>
<stop offset="0.5" stop-color="#FFCA00" stop-opacity="0.1"/>
<stop offset="0.9" stop-color="#313131"/>
</linearGradient>
<linearGradient id="paint4_linear_4461_25176" x1="380.502" y1="96.4483" x2="380.502" y2="45.2414" gradientUnits="userSpaceOnUse">
<stop offset="0.163377" stop-color="#FFCA00"/>
<stop offset="0.868767" stop-color="#FFCA00" stop-opacity="0"/>
</linearGradient>
<linearGradient id="paint5_linear_4461_25176" x1="0" y1="297" x2="167" y2="297" gradientUnits="userSpaceOnUse">
<stop offset="0.0970579" stop-color="#313131"/>
<stop offset="0.5" stop-color="#FFCA00" stop-opacity="0.1"/>
<stop offset="0.9" stop-color="#313131"/>
</linearGradient>
<linearGradient id="paint6_linear_4461_25176" x1="416" y1="297" x2="249" y2="297" gradientUnits="userSpaceOnUse">
<stop offset="0.0970579" stop-color="#313131"/>
<stop offset="0.5" stop-color="#FFCA00" stop-opacity="0.1"/>
<stop offset="0.9" stop-color="#313131"/>
</linearGradient>
<linearGradient id="paint7_linear_4461_25176" x1="174.857" y1="78.0153" x2="214.184" y2="267.271" gradientUnits="userSpaceOnUse">
<stop stop-color="#FAFAFA"/>
<stop offset="1" stop-color="#FAFAFA" stop-opacity="0"/>
</linearGradient>
<linearGradient id="paint8_linear_4461_25176" x1="172.625" y1="139.624" x2="243.336" y2="210.334" gradientUnits="userSpaceOnUse">
<stop stop-color="#FDE560"/>
<stop offset="1" stop-color="#FF6F00"/>
</linearGradient>
<linearGradient id="paint9_linear_4461_25176" x1="54.4643" y1="142.538" x2="72.8987" y2="231.252" gradientUnits="userSpaceOnUse">
<stop stop-color="#FAFAFA"/>
<stop offset="1" stop-color="#FAFAFA" stop-opacity="0"/>
</linearGradient>
<linearGradient id="paint10_linear_4461_25176" x1="53.7365" y1="171.736" x2="86.2635" y2="204.264" gradientUnits="userSpaceOnUse">
<stop stop-color="#FDE560"/>
<stop offset="1" stop-color="#FF6F00"/>
</linearGradient>
<linearGradient id="paint11_linear_4461_25176" x1="330.464" y1="142.538" x2="348.899" y2="231.252" gradientUnits="userSpaceOnUse">
<stop stop-color="#FAFAFA"/>
<stop offset="1" stop-color="#FAFAFA" stop-opacity="0"/>
</linearGradient>
<linearGradient id="paint12_linear_4461_25176" x1="329.736" y1="171.736" x2="362.264" y2="204.264" gradientUnits="userSpaceOnUse">
<stop stop-color="#FDE560"/>
<stop offset="1" stop-color="#FF6F00"/>
</linearGradient>
<linearGradient id="paint13_linear_4461_25176" x1="71.5" y1="137.31" x2="71.5" y2="81.5517" gradientUnits="userSpaceOnUse">
<stop offset="0.163377" stop-color="#FFCA00"/>
<stop offset="0.868767" stop-color="#FFCA00" stop-opacity="0"/>
</linearGradient>
<linearGradient id="paint14_linear_4461_25176" x1="26.931" y1="296.5" x2="-8.34483" y2="296.5" gradientUnits="userSpaceOnUse">
<stop offset="0.163377" stop-color="#FFCA00"/>
<stop offset="0.868767" stop-color="#FFCA00" stop-opacity="0"/>
</linearGradient>
<linearGradient id="paint15_linear_4461_25176" x1="131.345" y1="185.5" x2="109.724" y2="185.5" gradientUnits="userSpaceOnUse">
<stop offset="0.163377" stop-color="#FFCA00"/>
<stop offset="0.868767" stop-color="#FFCA00" stop-opacity="0"/>
</linearGradient>
<linearGradient id="paint16_linear_4461_25176" x1="284.655" y1="185.5" x2="306.276" y2="185.5" gradientUnits="userSpaceOnUse">
<stop offset="0.163377" stop-color="#FFCA00"/>
<stop offset="0.868767" stop-color="#FFCA00" stop-opacity="0"/>
</linearGradient>
<linearGradient id="paint17_linear_4461_25176" x1="344.5" y1="220.414" x2="344.5" y2="267.069" gradientUnits="userSpaceOnUse">
<stop offset="0.163377" stop-color="#FFCA00"/>
<stop offset="0.868767" stop-color="#FFCA00" stop-opacity="0"/>
</linearGradient>
<clipPath id="clip0_4461_25176">
<rect width="416" height="350" rx="16" fill="white"/>
</clipPath>
<clipPath id="clip1_4461_25176">
<rect width="100" height="100" fill="white" transform="translate(158 125)"/>
</clipPath>
<clipPath id="clip2_4461_25176">
<rect width="100" height="100" fill="white" transform="translate(157.98 124.979)"/>
</clipPath>
</defs>
</svg>
