<svg width="32" height="40" viewBox="0 0 32 40" fill="none" xmlns="http://www.w3.org/2000/svg">
<path d="M25.6561 12.7002C21.2689 15.8298 14.4363 17.0406 12.4302 17.3401C12.1361 17.3839 11.8811 17.1366 11.9156 16.8415C12.1571 14.7801 13.3153 7.67913 18.1089 3.3926C22.8597 -0.855817 29.1965 -0.750035 31.2062 1.70734C33.2159 4.16471 30.8171 9.01879 25.6561 12.7004V12.7002Z" fill="#FFE569"/>
<path d="M20.5782 13.5928C18.367 15.1946 14.6863 16.2605 13.4855 16.5796C13.3078 16.6268 13.146 16.464 13.1947 16.2867C13.5228 15.0927 14.6798 11.4614 17.1094 9.3102C19.5789 7.12376 22.7096 6.99568 23.6339 8.12585C24.5582 9.25601 23.2348 11.6685 20.5782 13.5928Z" fill="black"/>
<path d="M12.0162 18.4561C9.07128 19.928 9.19655 29.3427 8.96547 39.285C8.95199 39.8701 9.62163 40.2111 10.0864 39.8551C13.0142 37.6129 20.4936 31.2276 20.5489 24.4712C20.6008 18.145 14.4023 17.2635 12.0162 18.4561Z" fill="#FFE569"/>
<path d="M18.4241 28.6857C18.6004 28.5607 18.83 28.7495 18.7405 28.9465C18.5439 29.3798 18.3198 29.8177 18.0682 30.2597C18.0659 30.2641 18.0633 30.2683 18.061 30.2727C17.5459 31.175 16.8213 31.9419 15.9499 32.5076C13.3045 34.2253 11.5323 34.0778 10.3873 33.4091C10.0037 33.1853 9.7804 32.7635 9.80271 32.3199C9.84654 31.4446 9.89374 30.5605 9.94276 29.7122C9.95469 29.506 10.1824 29.3878 10.358 29.4964C11.933 30.4705 14.7389 31.2976 18.4246 28.6854L18.4241 28.6857Z" fill="black"/>
<path d="M12.76 36.7614C11.7693 37.6935 10.8198 38.5167 10.0985 39.0995C9.89415 39.2647 9.58993 39.1125 9.59927 38.8498C9.61639 38.3725 9.64258 37.6875 9.67656 36.869C9.67889 36.8153 9.73153 36.779 9.78263 36.7959C10.4105 37.0005 11.3382 37.0518 12.6435 36.5729C12.7589 36.5307 12.8492 36.6772 12.7597 36.7614H12.76Z" fill="black"/>
<path d="M6.94893 9.73458C9.30254 12.1834 10.7238 15.4121 11.2894 16.8806C11.4344 17.2571 11.1393 17.6571 10.7365 17.6278C8.8549 17.4917 4.25764 16.9006 1.74919 14.3424C-0.465408 12.0836 -0.343771 10.4331 0.823829 8.99177C1.98909 7.55333 4.75689 7.45403 6.94867 9.73432L6.94893 9.73458Z" fill="#FFE569"/>
<path d="M11.1687 23.1671C10.9333 21.3776 12.0874 19.753 12.5583 19.4704C13.6209 18.8331 16.5625 18.9524 17.6224 20.4357C20.8348 24.9315 11.8571 28.3961 11.1687 23.1671Z" fill="black"/>
</svg>
