<svg width="32" height="33" viewBox="0 0 32 33" fill="none" xmlns="http://www.w3.org/2000/svg">
<path d="M27 8.50004H21.9125C21.6719 7.1064 20.9466 5.84256 19.8649 4.93157C18.7831 4.02058 17.4143 3.521 16 3.521C14.5857 3.521 13.2169 4.02058 12.1351 4.93157C11.0534 5.84256 10.3281 7.1064 10.0875 8.50004H5C4.46957 8.50004 3.96086 8.71076 3.58579 9.08583C3.21071 9.4609 3 9.96961 3 10.5V26.5C3 27.0305 3.21071 27.5392 3.58579 27.9143C3.96086 28.2893 4.46957 28.5 5 28.5H27C27.5304 28.5 28.0391 28.2893 28.4142 27.9143C28.7893 27.5392 29 27.0305 29 26.5V10.5C29 9.96961 28.7893 9.4609 28.4142 9.08583C28.0391 8.71076 27.5304 8.50004 27 8.50004ZM16 5.50004C16.8866 5.50174 17.7476 5.79701 18.4487 6.33976C19.1497 6.8825 19.6513 7.64215 19.875 8.50004H12.125C12.3487 7.64215 12.8503 6.8825 13.5513 6.33976C14.2524 5.79701 15.1134 5.50174 16 5.50004Z" fill="#1C1C1C"/>
</svg>
