<svg width="128" height="128" viewBox="0 0 128 128" fill="none" xmlns="http://www.w3.org/2000/svg">
<rect width="128" height="128" rx="64" fill="white" fill-opacity="0.03"/>
<rect x="0.486648" y="0.486648" width="127.027" height="127.027" rx="63.5134" stroke="url(#paint0_linear_4461_23482)" stroke-opacity="0.5" stroke-width="0.973296"/>
<g clip-path="url(#clip0_4461_23482)">
<path d="M74.5762 71.7246C74.5801 78.791 62.4805 77.9863 58.625 77.9902V65.4629C62.4844 65.4629 74.5762 64.3555 74.5762 71.7246ZM114 64C114 91.6133 91.6133 114 64 114C36.3867 114 14 91.6133 14 64C14 36.3867 36.3867 14 64 14C91.6133 14 114 36.3848 114 64ZM77.6582 61.0801C80.957 59.4004 83.0195 56.4395 82.5371 51.5098C81.8887 44.7695 76.0723 42.5117 68.7266 41.8672V32.5195H63.0371V41.6211C61.541 41.6211 60.0117 41.6504 58.4941 41.6816V32.5195H52.8086V41.8652C51.5742 41.8906 50.3652 41.9141 49.1855 41.9141V41.8848L41.3359 41.8828V47.9609C41.3359 47.9609 45.5391 47.8809 45.4688 47.959C47.7734 47.959 48.5234 49.2969 48.7422 50.4531V61.1035C48.9023 61.1035 49.1094 61.1113 49.3438 61.1426C49.1543 61.1426 48.9512 61.1426 48.7422 61.1426V76.0605C48.6387 76.7852 48.2129 77.9434 46.6035 77.9453C46.6758 78.0098 42.4668 77.9453 42.4668 77.9453L41.3359 84.7402H48.7402C50.1191 84.7402 51.4746 84.7656 52.8047 84.7734V94.2285H58.4902V84.873C60.0508 84.9062 61.5605 84.918 63.0352 84.916V94.2285H68.7227V84.791C78.291 84.2422 84.9863 81.832 85.8184 72.8496C86.4902 65.6152 83.0859 62.3887 77.6563 61.084L77.6582 61.0801ZM71.9297 54.0508C71.9297 47.3457 61.8379 48.3672 58.627 48.3672V59.7285C61.8379 59.7285 71.9277 60.4785 71.9297 54.0508Z" fill="url(#paint1_linear_4461_23482)"/>
</g>
<defs>
<linearGradient id="paint0_linear_4461_23482" x1="30.8571" y1="-32.9847" x2="70.1839" y2="156.271" gradientUnits="userSpaceOnUse">
<stop stop-color="#FAFAFA"/>
<stop offset="1" stop-color="#FAFAFA" stop-opacity="0"/>
</linearGradient>
<linearGradient id="paint1_linear_4461_23482" x1="28.6445" y1="28.6445" x2="99.3555" y2="99.3555" gradientUnits="userSpaceOnUse">
<stop stop-color="#FDE560"/>
<stop offset="1" stop-color="#FF6F00"/>
</linearGradient>
<clipPath id="clip0_4461_23482">
<rect width="100" height="100" fill="white" transform="translate(14 14)"/>
</clipPath>
</defs>
</svg>
