<svg width="32" height="33" viewBox="0 0 32 33" fill="none" xmlns="http://www.w3.org/2000/svg">
<path d="M12.5 15.0625C12.6525 14.973 12.7789 14.8452 12.8666 14.6916C12.9543 14.5381 13.0003 14.3643 13 14.1875V5.18752C13.0014 5.02644 12.9639 4.86739 12.8906 4.72393C12.8173 4.58048 12.7104 4.45684 12.5791 4.36356C12.4478 4.27027 12.2958 4.2101 12.1363 4.18815C11.9767 4.16621 11.8141 4.18315 11.6625 4.23752C9.13078 5.13938 6.93964 6.80162 5.38898 8.99671C3.83832 11.1918 3.00392 13.8125 3 16.5C3.00135 17.2964 3.07246 18.0911 3.2125 18.875C3.24255 19.0316 3.30915 19.1789 3.4069 19.3049C3.50465 19.4309 3.63077 19.532 3.775 19.6C3.9081 19.6628 4.05289 19.6968 4.2 19.7C4.37586 19.699 4.54832 19.6515 4.7 19.5625L12.5 15.0625ZM11 6.70002V13.6125L5.0125 17.075C5 16.875 5 16.6875 5 16.5C5.00384 14.4731 5.56576 12.4863 6.62413 10.7577C7.68251 9.02897 9.19647 7.62511 11 6.70002Z" fill="#1C1C1C"/>
<path d="M27.2884 10.05C27.2755 10.036 27.2668 10.0187 27.2634 10L27.2134 9.9375C26.0694 7.97875 24.4323 6.35378 22.4651 5.22435C20.4979 4.09492 18.2693 3.50041 16.0009 3.5C15.7357 3.5 15.4813 3.60536 15.2938 3.79289C15.1063 3.98043 15.0009 4.23478 15.0009 4.5V15.925L5.11339 21.6375C4.99815 21.7012 4.8968 21.7873 4.81532 21.8907C4.73384 21.9941 4.67386 22.1128 4.63892 22.2398C4.60398 22.3667 4.59478 22.4994 4.61186 22.6299C4.62895 22.7605 4.67197 22.8863 4.73839 23V23.025L4.77589 23.0875C6.21783 25.5558 8.43316 27.4801 11.079 28.5624C13.7248 29.6447 16.6537 29.8247 19.4121 29.0746C22.1706 28.3245 24.6049 26.6861 26.3383 24.4129C28.0717 22.1398 29.0075 19.3586 29.0009 16.5C29.0039 14.2372 28.4135 12.0132 27.2884 10.05Z" fill="#1C1C1C"/>
</svg>
