<svg width="12" height="12" viewBox="0 0 12 12" fill="none" xmlns="http://www.w3.org/2000/svg">
<path d="M10.1495 4.89793L6.39954 8.64793C6.34728 8.70037 6.28518 8.74198 6.21681 8.77037C6.14844 8.79876 6.07513 8.81337 6.0011 8.81337C5.92706 8.81337 5.85376 8.79876 5.78539 8.77037C5.71701 8.74198 5.65492 8.70037 5.60266 8.64793L1.85266 4.89793C1.74699 4.79226 1.68762 4.64893 1.68762 4.49949C1.68762 4.35005 1.74699 4.20673 1.85266 4.10105C1.95833 3.99538 2.10165 3.93602 2.2511 3.93602C2.40054 3.93602 2.54386 3.99538 2.64954 4.10105L6.00157 7.45308L9.3536 4.10059C9.45927 3.99491 9.60259 3.93555 9.75204 3.93555C9.90148 3.93555 10.0448 3.99491 10.1505 4.10059C10.2561 4.20626 10.3155 4.34958 10.3155 4.49902C10.3155 4.64847 10.2561 4.79179 10.1505 4.89746L10.1495 4.89793Z" fill="#D6D6D6"/>
</svg>
