<svg width="32" height="33" viewBox="0 0 32 33" fill="none" xmlns="http://www.w3.org/2000/svg">
<path d="M28.2375 13.35C27.7625 12.8625 27.275 12.35 27.0875 11.9125C26.9 11.475 26.9125 10.825 26.9 10.1625C26.8875 8.95 26.8625 7.5625 25.9 6.6C24.9375 5.6375 23.55 5.6125 22.3375 5.6C21.675 5.5875 21 5.575 20.5875 5.4125C20.175 5.25 19.6375 4.7375 19.15 4.2625C18.2875 3.4375 17.3 2.5 16 2.5C14.7 2.5 13.7125 3.4375 12.85 4.2625C12.3625 4.7375 11.85 5.225 11.4125 5.4125C10.975 5.6 10.325 5.5875 9.6625 5.6C8.45 5.6125 7.0625 5.6375 6.1 6.6C5.1375 7.5625 5.1125 8.95 5.1 10.1625C5.0875 10.825 5.075 11.5 4.9125 11.9125C4.75 12.325 4.2375 12.8625 3.7625 13.35C2.9375 14.2125 2 15.2 2 16.5C2 17.8 2.9375 18.7875 3.7625 19.65C4.2375 20.1375 4.725 20.65 4.9125 21.0875C5.1 21.525 5.0875 22.175 5.1 22.8375C5.1125 24.05 5.1375 25.4375 6.1 26.4C7.0625 27.3625 8.45 27.3875 9.6625 27.4C10.325 27.4125 11 27.425 11.4125 27.5875C11.825 27.75 12.3625 28.2625 12.85 28.7375C13.7125 29.5625 14.7 30.5 16 30.5C17.3 30.5 18.2875 29.5625 19.15 28.7375C19.6375 28.2625 20.15 27.775 20.5875 27.5875C21.025 27.4 21.675 27.4125 22.3375 27.4C23.55 27.3875 24.9375 27.3625 25.9 26.4C26.8625 25.4375 26.8875 24.05 26.9 22.8375C26.9125 22.175 26.925 21.5 27.0875 21.0875C27.25 20.675 27.7625 20.1375 28.2375 19.65C29.0625 18.7875 30 17.8 30 16.5C30 15.2 29.0625 14.2125 28.2375 13.35ZM22.1875 14.225L14.8625 21.225C14.6731 21.4031 14.4225 21.5016 14.1625 21.5C13.9063 21.501 13.6598 21.4024 13.475 21.225L9.8125 17.725C9.71092 17.6364 9.6283 17.5281 9.56962 17.4067C9.51094 17.2854 9.47741 17.1534 9.47104 17.0187C9.46466 16.8841 9.48559 16.7495 9.53255 16.6231C9.5795 16.4968 9.65153 16.3812 9.74429 16.2834C9.83706 16.1856 9.94864 16.1075 10.0723 16.0539C10.196 16.0003 10.3293 15.9723 10.4641 15.9715C10.5989 15.9707 10.7325 15.9972 10.8568 16.0493C10.9811 16.1015 11.0936 16.1783 11.1875 16.275L14.1625 19.1125L20.8125 12.775C21.0069 12.6054 21.2594 12.5174 21.5172 12.5296C21.7749 12.5418 22.018 12.6532 22.1955 12.8404C22.3731 13.0277 22.4714 13.2763 22.4699 13.5343C22.4684 13.7924 22.3672 14.0398 22.1875 14.225Z" fill="#1C1C1C"/>
</svg>
