<svg width="32" height="33" viewBox="0 0 32 33" fill="none" xmlns="http://www.w3.org/2000/svg">
<path d="M23 11.7V11C23 7.8625 18.275 5.5 12 5.5C5.725 5.5 1 7.8625 1 11V16C1 18.6125 4.275 20.6875 9 21.3125V22C9 25.1375 13.725 27.5 20 27.5C26.275 27.5 31 25.1375 31 22V17C31 14.4125 27.825 12.3375 23 11.7ZM9 19.275V16.3125C9.99484 16.4403 10.997 16.503 12 16.5C13.003 16.503 14.0052 16.4403 15 16.3125V19.275C14.0076 19.4296 13.0044 19.5049 12 19.5C10.9956 19.5049 9.99243 19.4296 9 19.275ZM21 14.2375V16C21 17.05 19.45 18.175 17 18.8625V15.9375C18.6125 15.55 19.975 14.9625 21 14.2375ZM3 16V14.2375C4.025 14.9625 5.3875 15.55 7 15.9375V18.8625C4.55 18.175 3 17.05 3 16ZM11 22V21.475L12 21.5C12.4917 21.5 12.9667 21.4875 13.425 21.4625C13.925 21.6375 14.45 21.7875 15 21.925V24.8625C12.55 24.175 11 23.05 11 22ZM17 25.275V22.3C17.9947 22.4305 18.9968 22.4973 20 22.5C21.003 22.503 22.0052 22.4403 23 22.3125V25.275C21.0112 25.575 18.9888 25.575 17 25.275ZM25 24.8625V21.9375C26.6125 21.55 27.975 20.9625 29 20.2375V22C29 23.05 27.45 24.175 25 24.8625Z" fill="#1C1C1C"/>
</svg>
