<svg width="32" height="32" viewBox="0 0 32 32" fill="none" xmlns="http://www.w3.org/2000/svg">
<g clip-path="url(#clip0_4461_23824)">
<path d="M29.7327 13.1274V18.8718C29.7327 19.1633 29.4963 19.3996 29.2049 19.3996C28.8871 19.3996 28.666 19.1521 28.666 18.8718V13.1274C28.666 12.8359 28.9023 12.5996 29.1938 12.5996C29.5115 12.5996 29.7327 12.8471 29.7327 13.1274Z" fill="#1C1C1C"/>
<path d="M3.33424 13.1274V18.8718C3.33424 19.1633 3.09791 19.3996 2.80644 19.3996C2.48871 19.3996 2.26758 19.1521 2.26758 18.8718V13.1274C2.26758 12.8359 2.50391 12.5996 2.79538 12.5996C3.11311 12.5996 3.33424 12.8471 3.33424 13.1274Z" fill="#1C1C1C"/>
<path d="M12.5483 4.72984L6.743 7.74977C6.46667 7.89351 6.12627 7.76804 6.01047 7.47884C5.8988 7.19997 6.02213 6.92277 6.2518 6.80331L12.0571 3.78337C12.3334 3.63964 12.6738 3.76511 12.7896 4.05431C12.9013 4.33311 12.7779 4.61037 12.5483 4.72984Z" fill="#1C1C1C"/>
<path d="M12.7947 27.9356C12.6667 28.2515 12.3225 28.3541 12.0581 28.2166L6.25281 25.1966C6.01161 25.0712 5.90534 24.7831 6.00741 24.5311C6.13541 24.2152 6.47961 24.1126 6.74401 24.2502L12.5493 27.2701C12.7905 27.3956 12.8968 27.6836 12.7947 27.9356Z" fill="#1C1C1C"/>
<path d="M25.9939 7.46882C25.8659 7.78469 25.5218 7.88729 25.2573 7.74976L19.452 4.72982C19.2108 4.60436 19.1046 4.31629 19.2066 4.06429C19.3346 3.74842 19.6788 3.64582 19.9432 3.78336L25.7485 6.80329C25.9898 6.92876 26.096 7.21682 25.9939 7.46882Z" fill="#1C1C1C"/>
<path d="M25.7475 25.1966L19.9422 28.2166C19.6659 28.3603 19.3255 28.2348 19.2097 27.9456C19.098 27.6668 19.2214 27.3896 19.451 27.2701L25.2563 24.2502C25.5326 24.1064 25.873 24.2319 25.9888 24.5211C26.1005 24.7999 25.9772 25.0772 25.7475 25.1966Z" fill="#1C1C1C"/>
<path d="M16.0055 5.7334C16.2971 5.7334 16.5335 5.9698 16.5335 6.2614V6.7334C16.5335 7.43927 15.4668 7.43907 15.4668 6.7334V6.2614C15.4668 5.9832 15.6858 5.7334 16.0055 5.7334Z" fill="#1C1C1C"/>
<path d="M16.5335 25.2666V25.7386C16.5335 26.0302 16.2971 26.2666 16.0055 26.2666C15.6863 26.2666 15.4668 26.0173 15.4668 25.7386V25.2666C15.4668 24.5608 16.5335 24.561 16.5335 25.2666Z" fill="#1C1C1C"/>
<path d="M7.41943 12.2063L6.2517 11.5947C6.01157 11.4689 5.90557 11.1817 6.00723 10.9304C6.13543 10.6135 6.48063 10.5106 6.7455 10.6492L7.9141 11.261C8.54097 11.5888 8.04283 12.5339 7.41943 12.2063Z" fill="#1C1C1C"/>
<path d="M25.994 10.9303C26.0956 11.1817 25.9897 11.4689 25.7495 11.5947L24.5818 12.2063C23.9615 12.5322 23.456 11.5909 24.0871 11.2609L25.2557 10.6492C25.5202 10.5108 25.8656 10.613 25.994 10.9303Z" fill="#1C1C1C"/>
<path d="M7.91509 20.7389L6.74649 21.3506C6.46969 21.4956 6.12823 21.3696 6.01223 21.0795C5.90116 20.8018 6.02356 20.5252 6.25269 20.4052L7.42043 19.7936C8.04516 19.466 8.54116 20.4115 7.91509 20.7389Z" fill="#1C1C1C"/>
<path d="M25.9923 21.0696C25.8641 21.3865 25.5189 21.4894 25.254 21.3507L24.0854 20.739C23.4608 20.4124 23.9543 19.4656 24.5801 19.7937L25.7478 20.4053C25.988 20.5311 26.0939 20.8183 25.9923 21.0696Z" fill="#1C1C1C"/>
<path d="M16.7327 27.333H15.266C14.3837 27.333 13.666 28.0508 13.666 28.933V30.3997C13.666 31.2819 14.3837 31.9997 15.266 31.9997H16.7327C17.6149 31.9997 18.3327 31.2819 18.3327 30.3997V28.933C18.3327 28.0508 17.6149 27.333 16.7327 27.333Z" fill="#1C1C1C"/>
<path d="M16.7327 0H15.266C14.3837 0 13.666 0.7178 13.666 1.6V3.06667C13.666 3.94887 14.3837 4.66667 15.266 4.66667H16.7327C17.6149 4.66667 18.3327 3.94887 18.3327 3.06667V1.6C18.3327 0.7178 17.6149 0 16.7327 0Z" fill="#1C1C1C"/>
<path d="M3.53346 20.4666H2.0668C1.18453 20.4666 0.466797 21.1844 0.466797 22.0666V23.5332C0.466797 24.4154 1.18453 25.1332 2.0668 25.1332H3.53346C4.41573 25.1332 5.13346 24.4154 5.13346 23.5332V22.0666C5.13346 21.1844 4.41573 20.4666 3.53346 20.4666Z" fill="#1C1C1C"/>
<path d="M29.9339 6.86621H28.4672C27.5849 6.86621 26.8672 7.58401 26.8672 8.46621V9.93288C26.8672 10.8151 27.5849 11.5329 28.4672 11.5329H29.9339C30.8161 11.5329 31.5339 10.8151 31.5339 9.93288V8.46621C31.5339 7.58401 30.8161 6.86621 29.9339 6.86621Z" fill="#1C1C1C"/>
<path d="M29.9339 20.4668H28.4672C27.5849 20.4668 26.8672 21.1846 26.8672 22.0668V23.5335C26.8672 24.4157 27.5849 25.1335 28.4672 25.1335H29.9339C30.8161 25.1335 31.5339 24.4157 31.5339 23.5335V22.0668C31.5339 21.1846 30.8161 20.4668 29.9339 20.4668Z" fill="#1C1C1C"/>
<path d="M3.53346 6.86621H2.0668C1.18453 6.86621 0.466797 7.58401 0.466797 8.46621V9.93288C0.466797 10.8151 1.18453 11.5329 2.0668 11.5329H3.53346C4.41573 11.5329 5.13346 10.8151 5.13346 9.93288V8.46621C5.13346 7.58401 4.41573 6.86621 3.53346 6.86621Z" fill="#1C1C1C"/>
<path d="M15.3277 15.9749L9.861 12.9987C9.68333 12.9019 9.4668 13.0305 9.4668 13.2329V19.6005C9.4668 19.7958 9.5736 19.9755 9.74513 20.0689L15.0727 22.9694C15.2503 23.0661 15.4669 22.9375 15.4669 22.7352V16.2091C15.4668 16.1115 15.4134 16.0216 15.3277 15.9749Z" fill="#1C1C1C"/>
<path d="M16.1274 15.057L21.5698 12.0939C21.7553 11.9929 21.7553 11.7265 21.5698 11.6255L16.255 8.73194C16.096 8.64534 15.9039 8.64534 15.745 8.73194L10.4302 11.6255C10.2446 11.7265 10.2446 11.9929 10.4302 12.0939L15.8725 15.057C15.9519 15.1003 16.0479 15.1003 16.1274 15.057Z" fill="#1C1C1C"/>
<path d="M16.5332 16.2091V22.7352C16.5332 22.9375 16.7497 23.0661 16.9274 22.9694L22.2549 20.0689C22.4264 19.9755 22.5332 19.7958 22.5332 19.6005V13.2329C22.5332 13.0305 22.3167 12.9019 22.139 12.9987L16.6723 15.9749C16.5866 16.0216 16.5332 16.1115 16.5332 16.2091Z" fill="#1C1C1C"/>
</g>
<defs>
<clipPath id="clip0_4461_23824">
<rect width="32" height="32" fill="white"/>
</clipPath>
</defs>
</svg>
