<svg width="33" height="32" viewBox="0 0 33 32" fill="none" xmlns="http://www.w3.org/2000/svg">
<g clip-path="url(#clip0_4461_23850)">
<path d="M31.7446 12.0122C31.6482 12.0354 31.565 12.0957 31.513 12.18C31.461 12.2643 31.4445 12.3658 31.4671 12.4622C31.7404 13.6224 31.8788 14.8103 31.8796 16.0022C31.8747 20.0354 30.2704 23.9019 27.4186 26.7538C24.5667 29.6056 20.7002 31.2099 16.6671 31.2147C13.3545 31.2263 10.1309 30.1436 7.49705 28.1347C7.8507 27.6074 7.992 26.966 7.89263 26.3389C7.79327 25.7118 7.46059 25.1454 6.96126 24.7533C6.46193 24.3611 5.83284 24.1722 5.20007 24.2243C4.5673 24.2764 3.9776 24.5657 3.54915 25.0342C3.1207 25.5028 2.88515 26.116 2.88971 26.7509C2.89428 27.3858 3.13861 27.9955 3.57376 28.4578C4.0089 28.9202 4.6027 29.201 5.23615 29.244C5.8696 29.287 6.49591 29.089 6.98955 28.6897C9.76278 30.8247 13.1672 31.9768 16.6671 31.9647C19.0781 31.9621 21.4573 31.414 23.6265 30.3613C25.7956 29.3087 27.6984 27.7788 29.1924 25.8864C30.6863 23.9939 31.7326 21.788 32.253 19.4337C32.7733 17.0795 32.7542 14.638 32.1971 12.2922C32.1859 12.2441 32.1653 12.1986 32.1365 12.1584C32.1076 12.1182 32.0711 12.0841 32.0291 12.0581C31.987 12.032 31.9402 12.0146 31.8914 12.0067C31.8426 11.9989 31.7927 12.0007 31.7446 12.0122Z" fill="#1C1C1C"/>
<path d="M1.45412 16.0026C1.45428 13.2966 2.17617 10.6397 3.54535 8.30568C4.91453 5.97168 6.88145 4.0451 9.24332 2.72457C11.6052 1.40404 14.2765 0.737363 16.9819 0.793265C19.6873 0.849168 22.3288 1.62563 24.6341 3.0426C24.3962 3.55166 24.3581 4.13153 24.5274 4.66734C24.6967 5.20315 25.0611 5.65583 25.5484 5.93573C26.0356 6.21562 26.6103 6.3023 27.1584 6.17861C27.7066 6.05493 28.1883 5.72989 28.5081 5.26787C28.828 4.80586 28.9627 4.24056 28.8855 3.68396C28.8083 3.12735 28.5249 2.62003 28.0914 2.26247C27.6579 1.90491 27.1059 1.7232 26.5448 1.75332C25.9837 1.78343 25.4543 2.02319 25.0616 2.4251C22.6435 0.93027 19.8701 0.108291 17.028 0.044109C14.1859 -0.0200732 11.3782 0.67587 8.89514 2.06002C6.41203 3.44416 4.3436 5.46629 2.9036 7.91743C1.4636 10.3686 0.704284 13.1598 0.704117 16.0026C0.702772 16.977 0.791483 17.9495 0.969117 18.9076C0.984364 18.9939 1.02958 19.0721 1.09681 19.1283C1.16404 19.1846 1.24896 19.2153 1.33662 19.2151C1.35932 19.2151 1.38196 19.2126 1.40412 19.2076C1.50187 19.1899 1.58863 19.1342 1.64534 19.0527C1.70205 18.9711 1.72409 18.8704 1.70662 18.7726C1.5381 17.8589 1.45358 16.9317 1.45412 16.0026Z" fill="#1C1C1C"/>
<path d="M14.417 13.5251V13.7501H18.917V13.5251C18.882 10.4851 14.452 10.4851 14.417 13.5251Z" fill="#1C1C1C"/>
<path d="M27.1542 8.21044C22.9342 8.25294 18.8742 5.64544 17.3217 4.52044C17.131 4.38272 16.9019 4.30859 16.6667 4.30859C16.4315 4.30859 16.2023 4.38272 16.0117 4.52044C14.4592 5.64544 10.3892 8.24294 6.17918 8.21044C6.02966 8.20896 5.88133 8.23706 5.74272 8.29314C5.60412 8.34922 5.47797 8.43216 5.37154 8.53719C5.26512 8.64221 5.18052 8.76726 5.12263 8.90511C5.06473 9.04297 5.03467 9.19092 5.03418 9.34044C5.03668 15.1129 6.19168 23.3704 16.1592 28.4154C16.3164 28.4956 16.4903 28.5373 16.6667 28.5373C16.8431 28.5373 17.017 28.4956 17.1742 28.4154C27.1417 23.3704 28.2967 15.1129 28.2992 9.34044C28.2969 9.03884 28.1751 8.75045 27.9604 8.53859C27.7458 8.32673 27.4558 8.20871 27.1542 8.21044ZM20.7917 19.6254C20.7917 20.1227 20.5941 20.5996 20.2425 20.9513C19.8909 21.3029 19.414 21.5004 18.9167 21.5004H14.4167C13.9194 21.5004 13.4425 21.3029 13.0909 20.9513C12.7392 20.5996 12.5417 20.1227 12.5417 19.6254V15.6254C12.5419 15.2608 12.6484 14.9041 12.8482 14.599C13.048 14.294 13.3325 14.0538 13.6667 13.9079V13.5204C13.7117 9.50794 19.6217 9.50794 19.6667 13.5204V13.9079C20.0009 14.0538 20.2853 14.294 20.4852 14.599C20.685 14.9041 20.7915 15.2608 20.7917 15.6254V19.6254Z" fill="#1C1C1C"/>
<path d="M17.2813 17.1943C17.2757 17.1607 17.2773 17.1264 17.2859 17.0935C17.2946 17.0606 17.31 17.0298 17.3313 17.0033C17.415 16.8822 17.4641 16.7405 17.473 16.5936C17.482 16.4466 17.4506 16.3 17.3823 16.1696C17.3139 16.0392 17.2112 15.93 17.0852 15.8538C16.9592 15.7776 16.8148 15.7373 16.6675 15.7373C16.5203 15.7373 16.3759 15.7776 16.2499 15.8538C16.1239 15.93 16.0212 16.0392 15.9528 16.1696C15.8845 16.3 15.8531 16.4466 15.8621 16.5936C15.871 16.7405 15.9201 16.8822 16.0038 17.0033C16.025 17.0296 16.0404 17.06 16.049 17.0926C16.0576 17.1252 16.0593 17.1593 16.0538 17.1926C15.995 17.4853 15.8288 18.3223 15.7115 18.9033C15.6973 18.9758 15.6993 19.0505 15.7173 19.1221C15.7354 19.1937 15.7691 19.2604 15.816 19.3175C15.863 19.3745 15.9219 19.4204 15.9887 19.452C16.0555 19.4835 16.1284 19.4998 16.2023 19.4998H17.1323C17.2063 19.4998 17.2794 19.4834 17.3462 19.4518C17.4131 19.4202 17.4722 19.3741 17.5191 19.3169C17.566 19.2597 17.5997 19.1928 17.6176 19.121C17.6355 19.0492 17.6373 18.9744 17.6228 18.9018L17.2813 17.1943Z" fill="#1C1C1C"/>
</g>
<defs>
<clipPath id="clip0_4461_23850">
<rect width="32" height="32" fill="white" transform="translate(0.666992)"/>
</clipPath>
</defs>
</svg>
