<svg width="32" height="33" viewBox="0 0 32 33" fill="none" xmlns="http://www.w3.org/2000/svg">
<path d="M21.3125 14.9625C22.0712 14.2315 22.6039 13.2979 22.8474 12.2729C23.0909 11.2479 23.0348 10.1745 22.6859 9.18037C22.337 8.18627 21.7099 7.3133 20.8792 6.66529C20.0485 6.01728 19.0491 5.62149 18 5.525V3.5C18 3.23478 17.8946 2.98043 17.7071 2.79289C17.5196 2.60536 17.2652 2.5 17 2.5C16.7348 2.5 16.4804 2.60536 16.2929 2.79289C16.1054 2.98043 16 3.23478 16 3.5V5.5H14V3.5C14 3.23478 13.8946 2.98043 13.7071 2.79289C13.5196 2.60536 13.2652 2.5 13 2.5C12.7348 2.5 12.4804 2.60536 12.2929 2.79289C12.1054 2.98043 12 3.23478 12 3.5V5.5H8C7.73478 5.5 7.48043 5.60536 7.29289 5.79289C7.10536 5.98043 7 6.23478 7 6.5C7 6.76522 7.10536 7.01957 7.29289 7.20711C7.48043 7.39464 7.73478 7.5 8 7.5H9V24.5H8C7.73478 24.5 7.48043 24.6054 7.29289 24.7929C7.10536 24.9804 7 25.2348 7 25.5C7 25.7652 7.10536 26.0196 7.29289 26.2071C7.48043 26.3946 7.73478 26.5 8 26.5H12V28.5C12 28.7652 12.1054 29.0196 12.2929 29.2071C12.4804 29.3946 12.7348 29.5 13 29.5C13.2652 29.5 13.5196 29.3946 13.7071 29.2071C13.8946 29.0196 14 28.7652 14 28.5V26.5H16V28.5C16 28.7652 16.1054 29.0196 16.2929 29.2071C16.4804 29.3946 16.7348 29.5 17 29.5C17.2652 29.5 17.5196 29.3946 17.7071 29.2071C17.8946 29.0196 18 28.7652 18 28.5V26.5H19C20.3871 26.5006 21.7315 26.0206 22.8045 25.1416C23.8775 24.2627 24.6129 23.0392 24.8855 21.6791C25.1581 20.3191 24.9511 18.9067 24.2996 17.6821C23.6482 16.4576 22.5926 15.4965 21.3125 14.9625ZM21 11C20.9967 11.9272 20.6269 12.8156 19.9712 13.4712C19.3156 14.1269 18.4272 14.4967 17.5 14.5H11V7.5H17.5C18.4272 7.50329 19.3156 7.8731 19.9712 8.52877C20.6269 9.18443 20.9967 10.0728 21 11ZM19 24.5H11V16.5H19C20.0609 16.5 21.0783 16.9214 21.8284 17.6716C22.5786 18.4217 23 19.4391 23 20.5C23 21.5609 22.5786 22.5783 21.8284 23.3284C21.0783 24.0786 20.0609 24.5 19 24.5Z" fill="#1C1C1C"/>
</svg>
