<svg width="32" height="32" viewBox="0 0 32 32" fill="none" xmlns="http://www.w3.org/2000/svg">
<path d="M26.6117 11.9467C25.7184 10.96 24.3717 10.3867 22.505 10.1867V9.17336C22.505 7.3467 21.7317 5.5867 20.3717 4.36003C18.9984 3.1067 17.2117 2.52003 15.3584 2.69336C12.1717 3.00003 9.49169 6.08003 9.49169 9.41336V10.1867C7.62503 10.3867 6.27836 10.96 5.38503 11.9467C4.09169 13.3867 4.13169 15.3067 4.27836 16.64L5.21169 24.0667C5.49169 26.6667 6.54503 29.3334 12.2784 29.3334H19.7184C25.4517 29.3334 26.505 26.6667 26.785 24.08L27.7184 16.6267C27.865 15.3067 27.905 13.3867 26.6117 11.9467ZM15.545 4.5467C16.8784 4.4267 18.145 4.84003 19.1317 5.73336C20.105 6.61336 20.6517 7.8667 20.6517 9.17336V10.1067H11.345V9.41336C11.345 7.04003 13.305 4.76003 15.545 4.5467ZM15.9984 24.7734C13.2117 24.7734 10.945 22.5067 10.945 19.72C10.945 16.9334 13.2117 14.6667 15.9984 14.6667C18.785 14.6667 21.0517 16.9334 21.0517 19.72C21.0517 22.5067 18.785 24.7734 15.9984 24.7734Z" fill="#6F6F6F"/>
<path d="M15.2385 22.1866C14.9852 22.1866 14.7319 22.0933 14.5319 21.8933L13.2119 20.5733C12.8252 20.1866 12.8252 19.5466 13.2119 19.1599C13.5985 18.7733 14.2385 18.7733 14.6252 19.1599L15.2652 19.7999L17.3985 17.8266C17.7985 17.4533 18.4385 17.4799 18.8119 17.8799C19.1852 18.2799 19.1585 18.9199 18.7585 19.2933L15.9185 21.9199C15.7185 22.0933 15.4785 22.1866 15.2385 22.1866Z" fill="#6F6F6F"/>
</svg>
