<svg width="32" height="33" viewBox="0 0 32 33" fill="none" xmlns="http://www.w3.org/2000/svg">
<path d="M22.5002 26.7001C23.1928 26.3971 23.8614 26.0419 24.5002 25.6376V30.5001C24.5002 30.7653 24.3948 31.0196 24.2073 31.2072C24.0197 31.3947 23.7654 31.5001 23.5002 31.5001C23.2349 31.5001 22.9806 31.3947 22.7931 31.2072C22.6055 31.0196 22.5002 30.7653 22.5002 30.5001V26.7001ZM15.1127 12.0251C14.9915 12.2614 14.9669 12.5355 15.0438 12.7896C15.1207 13.0438 15.2933 13.2581 15.5252 13.3876L21.3752 16.5001L23.5002 15.3626L16.4752 11.6126C16.2389 11.4915 15.9648 11.4668 15.7106 11.5437C15.4565 11.6207 15.2421 11.7932 15.1127 12.0251ZM31.4752 11.6126L16.4752 3.61258C16.3277 3.53886 16.165 3.50049 16.0002 3.50049C15.8353 3.50049 15.6727 3.53886 15.5252 3.61258L0.52516 11.6126C0.366145 11.6999 0.23351 11.8283 0.141125 11.9845C0.0487407 12.1406 0 12.3187 0 12.5001C0 12.6815 0.0487407 12.8596 0.141125 13.0157C0.23351 13.1718 0.366145 13.3003 0.52516 13.3876L3.50016 14.9626V21.1876C3.49828 21.6168 3.63897 22.0345 3.90016 22.3751C4.88766 23.7001 8.68766 28.0001 16.0002 28.0001C18.2345 28.0187 20.4482 27.5717 22.5002 26.6876V17.1001L21.3752 16.5001L16.0002 19.3626L4.97516 13.4876L3.12516 12.5001L16.0002 5.63758L28.8752 12.5001L27.0252 13.4876L23.5002 15.3626L23.9752 15.6126C24.1443 15.7102 24.2828 15.8531 24.3752 16.0251C24.4583 16.1695 24.5014 16.3334 24.5002 16.5001V25.6376C25.8814 24.7686 27.0998 23.6644 28.1002 22.3751C28.3613 22.0345 28.502 21.6168 28.5002 21.1876V14.9626L31.4752 13.3876C31.6342 13.3003 31.7668 13.1718 31.8592 13.0157C31.9516 12.8596 32.0003 12.6815 32.0003 12.5001C32.0003 12.3187 31.9516 12.1406 31.8592 11.9845C31.7668 11.8283 31.6342 11.6999 31.4752 11.6126Z" fill="#1C1C1C"/>
</svg>
