<svg width="21" height="20" viewBox="0 0 21 20" fill="none" xmlns="http://www.w3.org/2000/svg">
<path d="M8.62423 14.9329C8.27189 15.7032 7.09611 17.5001 3.7922 17.5001C3.62644 17.5001 3.46747 17.4342 3.35026 17.317C3.23305 17.1998 3.1672 17.0409 3.1672 16.8751C3.1672 13.5712 4.96407 12.3954 5.73439 12.0431C5.80908 12.009 5.88974 11.99 5.97178 11.9871C6.05382 11.9842 6.13562 11.9975 6.21252 12.0262C6.28942 12.055 6.35991 12.0986 6.41996 12.1545C6.48001 12.2105 6.52845 12.2777 6.56251 12.3524C6.59657 12.4271 6.61559 12.5078 6.61848 12.5898C6.62136 12.6719 6.60806 12.7537 6.57933 12.8306C6.55061 12.9075 6.50701 12.978 6.45104 13.038C6.39507 13.0981 6.32783 13.1465 6.25314 13.1806C5.75079 13.4095 4.6422 14.1462 4.44689 16.2204C6.5211 16.0251 7.25939 14.9165 7.48673 14.4142C7.52079 14.3395 7.56923 14.2722 7.62928 14.2162C7.68933 14.1603 7.75982 14.1167 7.83672 14.088C7.91362 14.0592 7.99542 14.0459 8.07746 14.0488C8.1595 14.0517 8.24017 14.0707 8.31485 14.1048C8.38954 14.1388 8.45679 14.1873 8.51276 14.2473C8.56873 14.3074 8.61232 14.3779 8.64105 14.4548C8.66978 14.5317 8.68308 14.6135 8.68019 14.6955C8.67731 14.7775 8.65829 14.8582 8.62423 14.9329ZM18.1555 3.68291C18.137 3.37816 18.0076 3.09073 17.7917 2.87485C17.5758 2.65896 17.2884 2.52955 16.9836 2.51103C16.0008 2.45244 13.4891 2.54228 11.4055 4.62587L7.5422 8.49228C7.48418 8.5504 7.41528 8.59652 7.33944 8.62802C7.2636 8.65951 7.18229 8.67576 7.10017 8.67583C6.93432 8.67598 6.7752 8.61023 6.65782 8.49306C6.54044 8.37589 6.47442 8.21689 6.47427 8.05104C6.47413 7.88518 6.53987 7.72607 6.65704 7.60869L8.73204 5.53291C8.77548 5.48921 8.80503 5.43364 8.81698 5.3732C8.82893 5.31275 8.82275 5.25012 8.7992 5.19318C8.77566 5.13624 8.73581 5.08753 8.68466 5.05318C8.63351 5.01882 8.57335 5.00035 8.51173 5.00009H6.47579C6.31113 4.99923 6.14795 5.0311 5.99572 5.09387C5.84349 5.15664 5.70527 5.24905 5.58907 5.36572L2.90939 8.04697C2.74505 8.21119 2.62973 8.41797 2.57638 8.64409C2.52302 8.87021 2.53374 9.10673 2.60733 9.32709C2.68092 9.54746 2.81447 9.74296 2.99299 9.89164C3.17151 10.0403 3.38794 10.1363 3.61798 10.1688L6.62345 10.5884L10.0774 14.0423L10.4969 17.0493C10.5291 17.2794 10.6251 17.4958 10.7739 17.6742C10.9228 17.8526 11.1185 17.9857 11.3391 18.0587C11.4675 18.1016 11.6021 18.1235 11.7375 18.1235C11.9015 18.1238 12.0639 18.0917 12.2155 18.0289C12.367 17.9662 12.5046 17.8741 12.6203 17.7579L15.3016 15.0782C15.4179 14.9618 15.5101 14.8235 15.5728 14.6713C15.6356 14.5192 15.6676 14.3561 15.6672 14.1915V12.1556C15.6671 12.0938 15.6487 12.0334 15.6143 11.9821C15.5799 11.9308 15.5311 11.8908 15.474 11.8672C15.4169 11.8437 15.3541 11.8376 15.2935 11.8497C15.2329 11.8618 15.1773 11.8915 15.1336 11.9353L13.0578 14.0103C12.9971 14.071 12.9245 14.1186 12.8446 14.1501C12.7647 14.1816 12.6791 14.1962 12.5933 14.1931C12.5074 14.1901 12.4231 14.1693 12.3456 14.1322C12.2682 14.0951 12.1992 14.0424 12.143 13.9774C12.0405 13.8534 11.9884 13.6954 11.997 13.5347C12.0057 13.374 12.0746 13.2225 12.1899 13.1102L16.0391 9.26103C18.1242 7.17666 18.2141 4.66494 18.1555 3.68134V3.68291Z" fill="#1C1C1C"/>
</svg>
