<svg width="32" height="32" viewBox="0 0 32 32" fill="none" xmlns="http://www.w3.org/2000/svg">
<path d="M14.9759 26.85C14.9206 27.067 14.7949 27.2596 14.6185 27.3975C14.4421 27.5355 14.2249 27.6111 14.0009 27.6125C13.9203 27.6122 13.8402 27.5995 13.7634 27.575L9.98843 26.6375C9.68224 26.5601 9.39923 26.41 9.16343 26.2L6.35093 23.75C6.25244 23.6646 6.17173 23.5607 6.1134 23.4441C6.05507 23.3276 6.02027 23.2007 6.01098 23.0707C6.0017 22.9407 6.01811 22.8101 6.05928 22.6864C6.10045 22.5628 6.16557 22.4484 6.25093 22.35C6.33629 22.2515 6.44021 22.1707 6.55677 22.1124C6.67332 22.0541 6.80022 22.0193 6.93022 22.01C7.06022 22.0007 7.19078 22.0171 7.31444 22.0583C7.4381 22.0995 7.55244 22.1646 7.65093 22.25L10.4759 24.7L14.2384 25.6375C14.4958 25.7026 14.7172 25.8661 14.8552 26.0929C14.9931 26.3196 15.0365 26.5915 14.9759 26.85ZM31.5509 14.95C31.4687 15.2017 31.3367 15.4344 31.1628 15.6341C30.9889 15.8338 30.7765 15.9965 30.5384 16.1125L27.6259 17.575L25.7634 19.7625H25.7384C25.7384 19.775 25.7259 19.775 25.7259 19.7875H25.7134L21.1134 24.3875C20.7322 24.7601 20.2215 24.9706 19.6884 24.975C19.5282 24.9735 19.3686 24.9525 19.2134 24.9125L11.9634 23.125C11.6897 23.0611 11.4335 22.9373 11.2134 22.7625L4.46343 17.4875L1.46343 15.9875C0.984222 15.7446 0.620325 15.3223 0.450933 14.8125C0.370851 14.5598 0.341768 14.2938 0.365372 14.0299C0.388977 13.766 0.464799 13.5093 0.588433 13.275L3.66343 7.38745C3.90644 6.92414 4.32032 6.57367 4.81734 6.41033C5.31436 6.24698 5.85546 6.28361 6.32593 6.51245L9.12593 7.91245L15.2134 6.13745C15.6698 6.0131 16.1549 6.04838 16.5884 6.23745L20.7134 8.11245H22.7634L25.6759 6.64995C26.1444 6.4169 26.6854 6.37667 27.1832 6.53791C27.6809 6.69915 28.0956 7.049 28.3384 7.51245L31.4134 13.4C31.5374 13.6365 31.6134 13.8952 31.637 14.1612C31.6606 14.4272 31.6314 14.6953 31.5509 14.95ZM23.4634 19.225L19.5134 16.35L18.5009 17.1125C17.6338 17.7577 16.5818 18.1062 15.5009 18.1062C14.4201 18.1062 13.368 17.7577 12.5009 17.1125L11.8259 16.6C11.5953 16.4292 11.4044 16.2105 11.2664 15.9589C11.1283 15.7073 11.0464 15.4289 11.0262 15.1426C11.006 14.8564 11.0481 14.5691 11.1494 14.3007C11.2508 14.0322 11.4091 13.7889 11.6134 13.5875L16.5009 8.68745L16.7259 8.49995L15.7634 8.06245L9.67593 9.83745L6.27593 16.3625L12.4509 21.1875L19.6884 23L23.4634 19.225ZM25.8009 16.6375L22.4009 10.1125H17.9134L13.0259 15L13.7009 15.5125C14.2226 15.8962 14.8533 16.1032 15.5009 16.1032C16.1486 16.1032 16.7793 15.8962 17.3009 15.5125L18.9009 14.3125C19.0716 14.1837 19.2789 14.1131 19.4926 14.1108C19.7063 14.1086 19.9151 14.1749 20.0884 14.3L24.8384 17.75L25.8009 16.6375Z" fill="#1C1C1C"/>
</svg>
