<svg width="26" height="22" viewBox="0 0 26 22" fill="none" xmlns="http://www.w3.org/2000/svg">
<path d="M26 21C26 21.2652 25.8946 21.5196 25.7071 21.7071C25.5196 21.8946 25.2652 22 25 22H1C0.734784 22 0.48043 21.8946 0.292893 21.7071C0.105357 21.5196 0 21.2652 0 21V1C0 0.734784 0.105357 0.48043 0.292893 0.292893C0.48043 0.105357 0.734784 0 1 0C1.26522 0 1.51957 0.105357 1.70711 0.292893C1.89464 0.48043 2 0.734784 2 1V14.5875L8.2875 8.2875C8.47709 8.09972 8.73315 7.99437 9 7.99437C9.26685 7.99437 9.52291 8.09972 9.7125 8.2875L13 11.5875L19.0875 5.5L17.2875 3.7125C17.1518 3.56791 17.0599 3.38787 17.0223 3.19321C16.9847 2.99854 17.003 2.79721 17.075 2.6125C17.1529 2.43147 17.2818 2.27708 17.4461 2.16828C17.6105 2.05949 17.8029 2.001 18 2H23C23.2652 2 23.5196 2.10536 23.7071 2.29289C23.8946 2.48043 24 2.73478 24 3V8C24.0006 8.19742 23.9428 8.39062 23.8338 8.55523C23.7248 8.71984 23.5695 8.8485 23.3875 8.925C23.2642 8.97398 23.1327 8.99942 23 9C22.7345 8.99888 22.4795 8.89598 22.2875 8.7125L20.5 6.9125L13.7125 13.7125C13.5229 13.9003 13.2668 14.0056 13 14.0056C12.7332 14.0056 12.4771 13.9003 12.2875 13.7125L9 10.4125L2 17.4125V20H25C25.2652 20 25.5196 20.1054 25.7071 20.2929C25.8946 20.4804 26 20.7348 26 21Z" fill="#1C1C1C"/>
</svg>
