<svg width="26" height="24" viewBox="0 0 26 24" fill="none" xmlns="http://www.w3.org/2000/svg">
<path d="M-0.000234127 12C0.00307278 9.61408 0.952346 7.32682 2.63946 5.6397C4.32657 3.95259 6.61383 3.00332 8.99977 3.00001H20.9998V1.00001C20.9991 0.802588 21.057 0.609397 21.166 0.444788C21.275 0.280178 21.4303 0.151514 21.6123 0.0750127C21.797 0.00296723 21.9983 -0.0153097 22.193 0.022296C22.3876 0.0599017 22.5677 0.151853 22.7123 0.287513L25.7123 3.28751C25.9 3.47711 26.0054 3.73317 26.0054 4.00001C26.0054 4.26686 25.9 4.52292 25.7123 4.71251L22.7123 7.71251C22.5203 7.896 22.2653 7.99889 21.9998 8.00001C21.867 7.99943 21.7356 7.974 21.6123 7.92501C21.4303 7.84851 21.275 7.71985 21.166 7.55524C21.057 7.39063 20.9991 7.19744 20.9998 7.00001V5.00001H8.99977C7.14325 5.00001 5.36277 5.73751 4.05002 7.05027C2.73726 8.36302 1.99977 10.1435 1.99977 12C1.99977 12.2652 1.89441 12.5196 1.70687 12.7071C1.51934 12.8947 1.26498 13 0.999766 13C0.734549 13 0.480195 12.8947 0.292659 12.7071C0.105123 12.5196 -0.000234127 12.2652 -0.000234127 12ZM24.9998 11C24.7345 11 24.4802 11.1054 24.2927 11.2929C24.1051 11.4804 23.9998 11.7348 23.9998 12C23.9998 13.8565 23.2623 15.637 21.9495 16.9498C20.6368 18.2625 18.8563 19 16.9998 19H4.99977V17C5.00038 16.8026 4.94255 16.6094 4.83355 16.4448C4.72455 16.2802 4.56927 16.1515 4.38727 16.075C4.20256 16.003 4.00122 15.9847 3.80656 16.0223C3.61189 16.0599 3.43185 16.1519 3.28727 16.2875L0.287266 19.2875C0.0994841 19.4771 -0.00585938 19.7332 -0.00585938 20C-0.00585938 20.2669 0.0994841 20.5229 0.287266 20.7125L3.28727 23.7125C3.47922 23.896 3.73423 23.9989 3.99977 24C4.13248 23.9994 4.26392 23.974 4.38727 23.925C4.56927 23.8485 4.72455 23.7198 4.83355 23.5552C4.94255 23.3906 5.00038 23.1974 4.99977 23V21H16.9998C19.3857 20.9967 21.673 20.0474 23.3601 18.3603C25.0472 16.6732 25.9965 14.3859 25.9998 12C25.9998 11.7348 25.8944 11.4804 25.7069 11.2929C25.5193 11.1054 25.265 11 24.9998 11Z" fill="#1C1C1C"/>
</svg>
