<svg width="32" height="33" viewBox="0 0 32 33" fill="none" xmlns="http://www.w3.org/2000/svg">
<path d="M25 9.95V5.5C25 4.96957 24.7893 4.46086 24.4142 4.08579C24.0391 3.71071 23.5304 3.5 23 3.5H9C8.46957 3.5 7.96086 3.71071 7.58579 4.08579C7.21071 4.46086 7 4.96957 7 5.5V10C7.00096 10.3103 7.07368 10.6162 7.21246 10.8938C7.35124 11.1713 7.55232 11.413 7.8 11.6L14.3375 16.5L7.8 21.4C7.55232 21.587 7.35124 21.8287 7.21246 22.1062C7.07368 22.3838 7.00096 22.6897 7 23V27.5C7 28.0304 7.21071 28.5391 7.58579 28.9142C7.96086 29.2893 8.46957 29.5 9 29.5H23C23.5304 29.5 24.0391 29.2893 24.4142 28.9142C24.7893 28.5391 25 28.0304 25 27.5V23.05C24.999 22.7397 24.9263 22.4338 24.7875 22.1562C24.6488 21.8787 24.4477 21.637 24.2 21.45L17.6625 16.5L24.2 11.55C24.4477 11.363 24.6488 11.1213 24.7875 10.8438C24.9263 10.5662 24.999 10.2603 25 9.95ZM23 5.5V8.5H9V5.5H23ZM23 27.5H9V23L16 17.75L23 23.05V27.5Z" fill="#1C1C1C"/>
</svg>
