<svg width="20" height="20" viewBox="0 0 20 20" fill="none" xmlns="http://www.w3.org/2000/svg">
<path d="M10.0006 7.39511C8.56699 7.39511 7.39707 8.56503 7.39707 9.99863C7.39707 11.4322 8.56699 12.6021 10.0006 12.6021C11.4342 12.6021 12.6041 11.4322 12.6041 9.99863C12.6041 8.56503 11.4342 7.39511 10.0006 7.39511ZM17.8092 9.99863C17.8092 8.9205 17.8189 7.85214 17.7584 6.77597C17.6978 5.52597 17.4127 4.4166 16.4986 3.50253C15.5826 2.58652 14.4752 2.30332 13.2252 2.24277C12.1471 2.18222 11.0787 2.19199 10.0025 2.19199C8.92441 2.19199 7.85605 2.18222 6.77988 2.24277C5.52988 2.30332 4.4205 2.58847 3.50644 3.50253C2.59042 4.41855 2.30722 5.52597 2.24667 6.77597C2.18613 7.8541 2.19589 8.92246 2.19589 9.99863C2.19589 11.0748 2.18613 12.1451 2.24667 13.2213C2.30722 14.4713 2.59238 15.5807 3.50644 16.4947C4.42246 17.4107 5.52988 17.6939 6.77988 17.7545C7.858 17.815 8.92636 17.8053 10.0025 17.8053C11.0807 17.8053 12.149 17.815 13.2252 17.7545C14.4752 17.6939 15.5846 17.4088 16.4986 16.4947C17.4146 15.5787 17.6978 14.4713 17.7584 13.2213C17.8209 12.1451 17.8092 11.0768 17.8092 9.99863ZM10.0006 14.0045C7.78378 14.0045 5.99472 12.2154 5.99472 9.99863C5.99472 7.78183 7.78378 5.99277 10.0006 5.99277C12.2174 5.99277 14.0064 7.78183 14.0064 9.99863C14.0064 12.2154 12.2174 14.0045 10.0006 14.0045ZM14.1705 6.76425C13.6529 6.76425 13.235 6.34628 13.235 5.82871C13.235 5.31113 13.6529 4.89316 14.1705 4.89316C14.6881 4.89316 15.1061 5.31113 15.1061 5.82871C15.1062 5.95161 15.0821 6.07333 15.0351 6.18691C14.9882 6.30048 14.9193 6.40368 14.8324 6.49058C14.7455 6.57749 14.6423 6.64639 14.5287 6.69335C14.4151 6.74031 14.2934 6.76441 14.1705 6.76425Z" fill="#1C1C1C" fill-opacity="0.6"/>
</svg>
