<svg width="32" height="32" viewBox="0 0 32 32" fill="none" xmlns="http://www.w3.org/2000/svg">
<path d="M21.9992 14.4999C21.9992 15.9833 21.5593 17.4334 20.7352 18.6667C19.9111 19.9001 18.7398 20.8614 17.3693 21.429C15.9989 21.9967 14.4909 22.1452 13.036 21.8558C11.5812 21.5665 10.2448 20.8521 9.19592 19.8032C8.14702 18.7544 7.43272 17.418 7.14333 15.9631C6.85394 14.5083 7.00246 13.0003 7.57012 11.6298C8.13778 10.2594 9.09907 9.08804 10.3324 8.26393C11.5658 7.43982 13.0159 6.99995 14.4992 6.99995C16.4883 6.99995 18.396 7.79013 19.8025 9.19665C21.209 10.6032 21.9992 12.5108 21.9992 14.4999ZM28.6992 28.7124C28.5126 28.8963 28.2612 28.9995 27.9992 28.9999C27.7337 28.9988 27.4787 28.8959 27.2867 28.7124L21.8867 23.2999C19.6124 25.2102 16.6885 26.1687 13.7247 25.9756C10.7609 25.7824 7.98612 24.4525 5.97903 22.2632C3.97193 20.074 2.88751 17.1943 2.95193 14.225C3.01636 11.2556 4.22465 8.42571 6.32482 6.32555C8.42498 4.22539 11.2549 3.01709 14.2242 2.95267C17.1936 2.88824 20.0732 3.97266 22.2625 5.97976C24.4518 7.98686 25.7817 10.7617 25.9748 13.7255C26.168 16.6892 25.2095 19.6132 23.2992 21.8874L28.6992 27.2874C28.7937 27.3805 28.8687 27.4914 28.92 27.6137C28.9712 27.7361 28.9975 27.8673 28.9975 27.9999C28.9975 28.1326 28.9712 28.2638 28.92 28.3862C28.8687 28.5085 28.7937 28.6194 28.6992 28.7124ZM14.4992 23.9999C16.3781 23.9999 18.2149 23.4428 19.7771 22.3989C21.3394 21.355 22.557 19.8713 23.2761 18.1354C23.9951 16.3995 24.1832 14.4894 23.8167 12.6466C23.4501 10.8038 22.5453 9.11103 21.2167 7.78243C19.8881 6.45384 18.1954 5.54905 16.3526 5.18249C14.5098 4.81593 12.5996 5.00406 10.8637 5.72309C9.12783 6.44213 7.64413 7.65977 6.60026 9.22203C5.55638 10.7843 4.99922 12.621 4.99922 14.4999C5.00252 17.0185 6.00448 19.4329 7.78536 21.2138C9.56623 22.9947 11.9807 23.9966 14.4992 23.9999Z" fill="#1C1C1C"/>
</svg>
