<svg width="32" height="33" viewBox="0 0 32 33" fill="none" xmlns="http://www.w3.org/2000/svg">
<path d="M29 7.5H3C2.46957 7.5 1.96086 7.71071 1.58579 8.08579C1.21071 8.46086 1 8.96957 1 9.5V23.5C1 24.0304 1.21071 24.5391 1.58579 24.9142C1.96086 25.2893 2.46957 25.5 3 25.5H29C29.5304 25.5 30.0391 25.2893 30.4142 24.9142C30.7893 24.5391 31 24.0304 31 23.5V9.5C31 8.96957 30.7893 8.46086 30.4142 8.08579C30.0391 7.71071 29.5304 7.5 29 7.5ZM9.375 23.5L3 18.0375V14.9625L9.375 9.5H22.625L29 14.9625V18.0375L22.625 23.5H9.375ZM21 16.5C21 17.4889 20.7068 18.4556 20.1573 19.2779C19.6079 20.1001 18.827 20.741 17.9134 21.1194C16.9998 21.4978 15.9945 21.5969 15.0245 21.4039C14.0546 21.211 13.1637 20.7348 12.4645 20.0355C11.7652 19.3363 11.289 18.4454 11.0961 17.4755C10.9031 16.5055 11.0022 15.5002 11.3806 14.5866C11.759 13.673 12.3999 12.8921 13.2221 12.3427C14.0444 11.7932 15.0111 11.5 16 11.5C17.3261 11.5 18.5979 12.0268 19.5355 12.9645C20.4732 13.9021 21 15.1739 21 16.5Z" fill="#1C1C1C"/>
</svg>
