<svg width="40" height="40" viewBox="0 0 40 40" fill="none" xmlns="http://www.w3.org/2000/svg">
<path d="M31.9553 7.18481H8.05037C7.25195 7.18481 6.60352 7.82784 6.60352 8.6263V27.1726C6.60352 27.971 7.25195 28.6194 8.05037 28.6194H15.7079V29.8251H12.632C12.3373 29.8251 12.0962 30.0609 12.0962 30.361V32.2794C12.0962 32.5741 12.3373 32.8153 12.632 32.8153H27.3683C27.6684 32.8153 27.9042 32.5741 27.9042 32.2794V30.361C27.9042 30.0609 27.6684 29.8251 27.3683 29.8251H24.2924V28.6194H31.9553C32.7537 28.6194 33.3968 27.971 33.3968 27.1726V8.6263C33.3968 7.82784 32.7537 7.18481 31.9553 7.18481ZM32.3251 23.593H7.67525V8.6263C7.67525 8.42265 7.84672 8.25655 8.05037 8.25655H31.9553C32.1589 8.25655 32.3251 8.42265 32.3251 8.6263V23.593Z" fill="#1C1C1C"/>
<path d="M14.1422 16.1819H11.9988C11.6987 16.1819 11.4629 16.4177 11.4629 16.7178V21.8728C11.4629 22.1675 11.6987 22.4087 11.9988 22.4087H14.1422C14.4369 22.4087 14.6781 22.1675 14.6781 21.8728V16.7178C14.6781 16.4177 14.4369 16.1819 14.1422 16.1819Z" fill="#1C1C1C"/>
<path d="M23.3864 15.78H21.2429C20.9428 15.78 20.707 16.0158 20.707 16.3159V21.8728C20.707 22.1676 20.9428 22.4087 21.2429 22.4087H23.3864C23.6811 22.4087 23.9222 22.1676 23.9222 21.8728V16.3159C23.9222 16.0158 23.6811 15.78 23.3864 15.78Z" fill="#1C1C1C"/>
<path d="M18.7614 13.6365H16.6179C16.3232 13.6365 16.082 13.8723 16.082 14.1724V21.8728C16.082 22.1675 16.3232 22.4087 16.6179 22.4087H18.7614C19.0561 22.4087 19.2972 22.1675 19.2972 21.8728V14.1724C19.2972 13.8723 19.0561 13.6365 18.7614 13.6365Z" fill="#1C1C1C"/>
<path d="M28.0055 10.2178H25.8621C25.5673 10.2178 25.3262 10.4589 25.3262 10.7537V21.8728C25.3262 22.1676 25.5673 22.4087 25.8621 22.4087H28.0055C28.3002 22.4087 28.5414 22.1676 28.5414 21.8728V10.7537C28.5414 10.4589 28.3002 10.2178 28.0055 10.2178Z" fill="#1C1C1C"/>
</svg>
