<svg width="20" height="20" viewBox="0 0 20 20" fill="none" xmlns="http://www.w3.org/2000/svg">
<path d="M13.7501 18.1252C13.7501 18.291 13.6843 18.4499 13.5671 18.5671C13.4499 18.6844 13.2909 18.7502 13.1251 18.7502H6.87514C6.70938 18.7502 6.5504 18.6844 6.43319 18.5671C6.31598 18.4499 6.25014 18.291 6.25014 18.1252C6.25014 17.9594 6.31598 17.8005 6.43319 17.6833C6.5504 17.566 6.70938 17.5002 6.87514 17.5002H13.1251C13.2909 17.5002 13.4499 17.566 13.5671 17.6833C13.6843 17.8005 13.7501 17.9594 13.7501 18.1252ZM16.8751 8.1252C16.8772 9.16657 16.6419 10.1947 16.187 11.1315C15.7322 12.0683 15.0698 12.8891 14.2501 13.5314C14.0953 13.6483 13.9697 13.7994 13.8829 13.9728C13.7962 14.1463 13.7507 14.3375 13.7501 14.5314V15.0002C13.7501 15.3317 13.6184 15.6497 13.384 15.8841C13.1496 16.1185 12.8317 16.2502 12.5001 16.2502H7.50014C7.16861 16.2502 6.85067 16.1185 6.61625 15.8841C6.38183 15.6497 6.25014 15.3317 6.25014 15.0002V14.5314C6.2496 14.3402 6.20574 14.1516 6.12185 13.9798C6.03795 13.8079 5.91621 13.6573 5.76576 13.5393C4.94785 12.9013 4.28527 12.0862 3.82789 11.1552C3.37051 10.2241 3.13023 9.20154 3.12514 8.16426C3.1017 4.4377 6.11732 1.33614 9.83607 1.2502C10.7529 1.22724 11.665 1.38817 12.5187 1.72347C13.3723 2.05878 14.1501 2.56168 14.8062 3.20249C15.4623 3.84329 15.9834 4.60903 16.3387 5.45451C16.6941 6.29999 16.8765 7.20808 16.8751 8.1252ZM14.3126 7.39082C14.1611 6.49771 13.7351 5.67399 13.0939 5.03413C12.4526 4.39428 11.628 3.97009 10.7345 3.82051C10.6535 3.80717 10.5706 3.80993 10.4906 3.82863C10.4106 3.84732 10.3351 3.88159 10.2683 3.92947C10.2016 3.97735 10.1449 4.0379 10.1016 4.10768C10.0583 4.17746 10.0291 4.25509 10.0158 4.33614C10.0024 4.41719 10.0052 4.50007 10.0239 4.58005C10.0426 4.66004 10.0768 4.73556 10.1247 4.8023C10.1726 4.86904 10.2332 4.9257 10.3029 4.96904C10.3727 5.01238 10.4503 5.04155 10.5314 5.05489C11.1682 5.1615 11.7558 5.46419 12.2124 5.92074C12.669 6.3773 12.9717 6.96496 13.0783 7.60176C13.104 7.7466 13.18 7.87771 13.2929 7.97203C13.4058 8.06635 13.5483 8.11782 13.6954 8.11739H13.8048C13.8865 8.10424 13.9646 8.07482 14.0347 8.03089C14.1047 7.98695 14.1652 7.92939 14.2126 7.86162C14.2599 7.79385 14.2932 7.71725 14.3104 7.63638C14.3276 7.5555 14.3283 7.472 14.3126 7.39082Z" fill="#1C1C1C"/>
</svg>
