<svg width="20" height="20" viewBox="0 0 20 20" fill="none" xmlns="http://www.w3.org/2000/svg">
<path d="M17.0553 5.96823C17.0472 5.95951 17.0418 5.94867 17.0396 5.93698L17.0084 5.89792C15.9016 4.09024 14.1322 2.78665 12.0777 2.26528C10.0232 1.74391 7.84629 2.04603 6.01143 3.10719C4.17658 4.16834 2.82904 5.90452 2.25633 7.94529C1.68361 9.98606 1.93107 12.1698 2.94589 14.0307L2.96152 14.062L2.98496 14.0932C4.08141 15.921 5.8522 17.2448 7.9156 17.7791C9.97899 18.3135 12.1697 18.0156 14.0155 16.9497C15.8613 15.8839 17.2144 14.1353 17.783 12.0811C18.3516 10.0269 18.0903 7.83153 17.0553 5.96823ZM15.6178 6.03854L10.6256 8.91354V3.15573C11.6165 3.24726 12.5759 3.55234 13.4376 4.04999C14.2994 4.54763 15.0432 5.22604 15.6178 6.03854ZM10.0006 16.8745C8.89935 16.8741 7.8143 16.6093 6.83678 16.1021C5.85926 15.595 5.01785 14.8605 4.38339 13.9604L16.2428 7.11667C16.7266 8.16426 16.939 9.31679 16.8604 10.468C16.7817 11.6193 16.4146 12.7322 15.7927 13.7043C15.1709 14.6763 14.3144 15.4762 13.3022 16.0303C12.2899 16.5843 11.1545 16.8746 10.0006 16.8745Z" fill="#1C1C1C"/>
</svg>
