<svg width="20" height="20" viewBox="0 0 20 20" fill="none" xmlns="http://www.w3.org/2000/svg">
<path d="M17.6486 12.75L17.672 12.6719C18.2764 10.9419 18.2764 9.05811 17.672 7.32812L17.6486 7.25C17.0803 5.67685 16.0413 4.31693 14.6728 3.3552C13.3043 2.39348 11.6728 1.87664 10.0001 1.875C8.32751 1.87664 6.69599 2.39348 5.32749 3.3552C3.95899 4.31693 2.91995 5.67685 2.35171 7.25L2.32827 7.32812C1.72391 9.05811 1.72391 10.9419 2.32827 12.6719L2.35171 12.75C2.92188 14.3219 3.9614 15.6806 5.32947 16.642C6.69754 17.6034 8.32804 18.1211 10.0001 18.125C11.6728 18.1234 13.3043 17.6065 14.6728 16.6448C16.0413 15.6831 17.0803 14.3231 17.6486 12.75ZM10.0001 3.5625C10.9102 4.49867 11.592 5.63226 11.9923 6.875H8.00796C8.4083 5.63226 9.09005 4.49867 10.0001 3.5625ZM8.00796 13.125H11.9923C11.592 14.3677 10.9102 15.5013 10.0001 16.4375C9.09005 15.5013 8.4083 14.3677 8.00796 13.125ZM7.67983 11.875C7.44031 10.6365 7.44031 9.36353 7.67983 8.125H12.3205C12.56 9.36353 12.56 10.6365 12.3205 11.875H7.67983ZM13.5939 8.125H16.6173C16.9612 9.35135 16.9612 10.6486 16.6173 11.875H13.5939C13.8022 10.6337 13.8022 9.36632 13.5939 8.125ZM16.1251 6.875H13.3126C12.9367 5.55884 12.296 4.33329 11.4298 3.27344C12.43 3.4894 13.3699 3.92441 14.1818 4.54718C14.9936 5.16994 15.6574 5.96496 16.1251 6.875ZM11.4298 16.7266C12.296 15.6667 12.9367 14.4412 13.3126 13.125H16.1251C15.6574 14.035 14.9936 14.8301 14.1818 15.4528C13.3699 16.0756 12.43 16.5106 11.4298 16.7266Z" fill="#1C1C1C"/>
</svg>
