<svg width="20" height="20" viewBox="0 0 20 20" fill="none" xmlns="http://www.w3.org/2000/svg">
<path d="M10.8826 10L16.2498 4.63281C16.4242 4.45801 16.5429 4.23547 16.591 3.99327C16.639 3.75108 16.6143 3.50008 16.5198 3.27193C16.4254 3.04379 16.2655 2.84872 16.0603 2.71134C15.8552 2.57396 15.6139 2.50042 15.367 2.5H4.63263C4.38571 2.50042 4.14445 2.57396 3.93928 2.71134C3.73412 2.84872 3.57423 3.04379 3.4798 3.27193C3.38536 3.50008 3.36061 3.75108 3.40867 3.99327C3.45672 4.23547 3.57543 4.45801 3.74981 4.63281L9.117 10L3.74981 15.3672C3.57543 15.542 3.45672 15.7645 3.40867 16.0067C3.36061 16.2489 3.38536 16.4999 3.4798 16.7281C3.57423 16.9562 3.73412 17.1513 3.93928 17.2887C4.14445 17.426 4.38571 17.4996 4.63263 17.5H15.367C15.6139 17.4996 15.8552 17.426 16.0603 17.2887C16.2655 17.1513 16.4254 16.9562 16.5198 16.7281C16.6143 16.4999 16.639 16.2489 16.591 16.0067C16.5429 15.7645 16.4242 15.542 16.2498 15.3672L10.8826 10ZM4.63263 3.75H15.367L9.99981 9.11719L4.63263 3.75ZM9.99981 10.8828L12.242 13.125H7.75763L9.99981 10.8828Z" fill="#1C1C1C"/>
</svg>
