<svg width="20" height="20" viewBox="0 0 20 20" fill="none" xmlns="http://www.w3.org/2000/svg">
<path d="M17.5002 10.0003C17.5002 10.1661 17.4344 10.3251 17.3172 10.4423C17.1999 10.5595 17.041 10.6253 16.8752 10.6253H10.0002C9.83446 10.6253 9.67549 10.5595 9.55827 10.4423C9.44106 10.3251 9.37522 10.1661 9.37522 10.0003C9.37522 9.83459 9.44106 9.67562 9.55827 9.55841C9.67549 9.4412 9.83446 9.37535 10.0002 9.37535H16.8752C17.041 9.37535 17.1999 9.4412 17.3172 9.55841C17.4344 9.67562 17.5002 9.83459 17.5002 10.0003ZM10.0002 5.62535H16.8752C17.041 5.62535 17.1999 5.5595 17.3172 5.44229C17.4344 5.32508 17.5002 5.16611 17.5002 5.00035C17.5002 4.83459 17.4344 4.67562 17.3172 4.55841C17.1999 4.4412 17.041 4.37535 16.8752 4.37535H10.0002C9.83446 4.37535 9.67549 4.4412 9.55827 4.55841C9.44106 4.67562 9.37522 4.83459 9.37522 5.00035C9.37522 5.16611 9.44106 5.32508 9.55827 5.44229C9.67549 5.5595 9.83446 5.62535 10.0002 5.62535ZM16.8752 14.3753H10.0002C9.83446 14.3753 9.67549 14.4412 9.55827 14.5584C9.44106 14.6756 9.37522 14.8346 9.37522 15.0003C9.37522 15.1661 9.44106 15.3251 9.55827 15.4423C9.67549 15.5595 9.83446 15.6253 10.0002 15.6253H16.8752C17.041 15.6253 17.1999 15.5595 17.3172 15.4423C17.4344 15.3251 17.5002 15.1661 17.5002 15.0003C17.5002 14.8346 17.4344 14.6756 17.3172 14.5584C17.1999 14.4412 17.041 14.3753 16.8752 14.3753ZM6.76584 3.28941L4.47678 5.39878L3.54709 4.53941C3.42418 4.43171 3.26398 4.37644 3.10081 4.38543C2.93764 4.39442 2.78449 4.46696 2.67415 4.58751C2.56382 4.70806 2.50509 4.86702 2.51055 5.03035C2.516 5.19368 2.58521 5.34837 2.70334 5.46128L4.0549 6.71128C4.17009 6.81676 4.32059 6.87529 4.47678 6.87535C4.63538 6.87573 4.78848 6.81728 4.90647 6.71128L7.60959 4.21128C7.67218 4.15644 7.72318 4.08966 7.75962 4.01484C7.79605 3.94002 7.81717 3.85869 7.82175 3.7756C7.82633 3.69251 7.81427 3.60934 7.78628 3.53098C7.75829 3.45261 7.71493 3.38062 7.65874 3.31924C7.60256 3.25785 7.53468 3.2083 7.4591 3.1735C7.38351 3.1387 7.30173 3.11934 7.21856 3.11656C7.1354 3.11378 7.05251 3.12764 6.97477 3.15732C6.89703 3.187 6.826 3.23191 6.76584 3.28941ZM6.76584 8.28941L4.47678 10.3988L3.54709 9.53941C3.48694 9.48191 3.41591 9.437 3.33816 9.40732C3.26042 9.37764 3.17754 9.36378 3.09437 9.36656C3.0112 9.36934 2.92942 9.3887 2.85384 9.4235C2.77825 9.4583 2.71037 9.50785 2.65419 9.56924C2.59801 9.63062 2.55465 9.70261 2.52665 9.78098C2.49866 9.85934 2.4866 9.94251 2.49118 10.0256C2.49576 10.1087 2.51688 10.19 2.55332 10.2648C2.58975 10.3397 2.64075 10.4064 2.70334 10.4613L4.0549 11.7113C4.17009 11.8168 4.32059 11.8753 4.47678 11.8753C4.63538 11.8757 4.78848 11.8173 4.90647 11.7113L7.60959 9.21128C7.67218 9.15644 7.72318 9.08966 7.75962 9.01484C7.79605 8.94002 7.81717 8.85869 7.82175 8.7756C7.82633 8.69251 7.81427 8.60934 7.78628 8.53098C7.75829 8.45261 7.71493 8.38062 7.65874 8.31924C7.60256 8.25785 7.53468 8.2083 7.4591 8.1735C7.38351 8.1387 7.30173 8.11934 7.21856 8.11656C7.1354 8.11378 7.05251 8.12764 6.97477 8.15732C6.89703 8.187 6.826 8.23191 6.76584 8.28941ZM6.76584 13.2894L4.47678 15.3988L3.54709 14.5394C3.48694 14.4819 3.41591 14.437 3.33816 14.4073C3.26042 14.3776 3.17754 14.3638 3.09437 14.3666C3.0112 14.3693 2.92942 14.3887 2.85384 14.4235C2.77825 14.4583 2.71037 14.5079 2.65419 14.5692C2.59801 14.6306 2.55465 14.7026 2.52665 14.781C2.49866 14.8593 2.4866 14.9425 2.49118 15.0256C2.49576 15.1087 2.51688 15.19 2.55332 15.2648C2.58975 15.3397 2.64075 15.4064 2.70334 15.4613L4.0549 16.7113C4.17009 16.8168 4.32059 16.8753 4.47678 16.8753C4.63538 16.8757 4.78848 16.8173 4.90647 16.7113L7.60959 14.2113C7.72772 14.0984 7.79693 13.9437 7.80239 13.7803C7.80784 13.617 7.74911 13.4581 7.63878 13.3375C7.52845 13.217 7.37529 13.1444 7.21212 13.1354C7.04895 13.1264 6.88875 13.1817 6.76584 13.2894Z" fill="#1C1C1C"/>
</svg>
