<svg width="20" height="20" viewBox="0 0 20 20" fill="none" xmlns="http://www.w3.org/2000/svg">
<path d="M17.9609 5.53164C17.9589 5.53164 17.9569 5.53082 17.9554 5.52936C17.954 5.52789 17.9531 5.5259 17.9531 5.52383C17.8402 5.33158 17.6785 5.17257 17.4844 5.06289L10.6094 1.19571C10.4231 1.09171 10.2133 1.03711 10 1.03711C9.78667 1.03711 9.57689 1.09171 9.39063 1.19571L2.51563 5.06289C2.32151 5.17257 2.1598 5.33158 2.04688 5.52383C2.04688 5.5259 2.04606 5.52789 2.04459 5.52936C2.04313 5.53082 2.04114 5.53164 2.03907 5.53164V5.54727C1.93106 5.72929 1.87436 5.93717 1.87501 6.14883V13.852C1.8754 14.0747 1.93492 14.2933 2.04747 14.4854C2.16002 14.6776 2.32158 14.8364 2.51563 14.9457L9.39063 18.8129C9.56371 18.9073 9.75615 18.9608 9.95313 18.9691H10.0625C10.2545 18.9606 10.4418 18.9071 10.6094 18.8129L17.4844 14.9457C17.6784 14.8364 17.84 14.6776 17.9525 14.4854C18.0651 14.2933 18.1246 14.0747 18.125 13.852V6.14883C18.1262 5.93218 18.0695 5.71913 17.9609 5.53164ZM10 2.28164L16.2266 5.78164L13.8359 7.14102L7.53126 3.66446L10 2.28164ZM10.0703 9.28164L3.78126 5.78164L6.25001 4.39102L12.5625 7.86758L10.0703 9.28164ZM10.6328 17.3676L10.6953 10.3676L13.2031 8.93789V11.9145C13.2031 12.0802 13.269 12.2392 13.3862 12.3564C13.5034 12.4736 13.6624 12.5395 13.8281 12.5395C13.9939 12.5395 14.1529 12.4736 14.2701 12.3564C14.3873 12.2392 14.4531 12.0802 14.4531 11.9145V8.22696L16.875 6.85196V13.852L10.6328 17.3676Z" fill="#1C1C1C"/>
</svg>
