<svg width="20" height="20" viewBox="0 0 20 20" fill="none" xmlns="http://www.w3.org/2000/svg">
<path d="M5.00002 10.9369C5.00107 11.0193 4.98562 11.101 4.95459 11.1773C4.92355 11.2536 4.87755 11.3229 4.8193 11.3812C4.76106 11.4394 4.69174 11.4854 4.61544 11.5165C4.53914 11.5475 4.45739 11.563 4.37502 11.5619H0.937525C0.821415 11.561 0.707744 11.5285 0.608666 11.4679C0.509589 11.4074 0.42883 11.3211 0.375025 11.2182C0.324992 11.1134 0.304377 10.997 0.315386 10.8814C0.326395 10.7658 0.368612 10.6554 0.437525 10.5619C0.99064 9.81944 1.72871 9.23491 2.57815 8.8666C2.21314 8.53248 1.9327 8.11645 1.75991 7.65276C1.58711 7.18907 1.5269 6.69098 1.58423 6.19947C1.64156 5.70797 1.81479 5.2371 2.08967 4.82563C2.36455 4.41416 2.73321 4.07384 3.16531 3.8327C3.59742 3.59155 4.08061 3.45647 4.57513 3.43857C5.06964 3.42067 5.56134 3.52046 6.00975 3.72972C6.45816 3.93899 6.85047 4.25176 7.15438 4.64227C7.45829 5.03279 7.66512 5.4899 7.75784 5.97597C7.78095 6.10257 7.76492 6.23321 7.71188 6.35046C7.65883 6.46771 7.57131 6.566 7.46096 6.63222C6.45052 7.23141 5.68202 8.16577 5.28909 9.27285C5.09539 9.80616 4.99753 10.3695 5.00002 10.9369ZM19.5625 10.5619C19.0094 9.81944 18.2713 9.23491 17.4219 8.8666C17.7869 8.53248 18.0673 8.11645 18.2401 7.65276C18.4129 7.18907 18.4732 6.69098 18.4158 6.19947C18.3585 5.70797 18.1853 5.2371 17.9104 4.82563C17.6355 4.41416 17.2668 4.07384 16.8347 3.8327C16.4026 3.59155 15.9194 3.45647 15.4249 3.43857C14.9304 3.42067 14.4387 3.52046 13.9903 3.72972C13.5419 3.93899 13.1496 4.25176 12.8457 4.64227C12.5418 5.03279 12.3349 5.4899 12.2422 5.97597C12.2191 6.10257 12.2351 6.23321 12.2882 6.35046C12.3412 6.46771 12.4287 6.566 12.5391 6.63222C13.5509 7.22987 14.3198 8.16477 14.711 9.27285C14.9047 9.80616 15.0025 10.3695 15 10.9369C14.999 11.0193 15.0144 11.101 15.0455 11.1773C15.0765 11.2536 15.1225 11.3229 15.1807 11.3812C15.239 11.4394 15.3083 11.4854 15.3846 11.5165C15.4609 11.5475 15.5427 11.563 15.625 11.5619H19.0625C19.1786 11.5619 19.2924 11.5296 19.3911 11.4686C19.4898 11.4075 19.5696 11.3202 19.6215 11.2164C19.6735 11.1126 19.6954 10.9964 19.685 10.8808C19.6746 10.7652 19.6322 10.6548 19.5625 10.5619ZM12.2813 13.9135C12.9033 13.4367 13.3603 12.7771 13.5881 12.0272C13.8159 11.2773 13.8031 10.4749 13.5513 9.73273C13.2996 8.99054 12.8217 8.34587 12.1847 7.88929C11.5478 7.43271 10.7837 7.18717 10 7.18717C9.21631 7.18717 8.4523 7.43271 7.81532 7.88929C7.17835 8.34587 6.70043 8.99054 6.44871 9.73273C6.197 10.4749 6.18414 11.2773 6.41194 12.0272C6.63974 12.7771 7.09676 13.4367 7.71878 13.9135C6.50356 14.453 5.51837 15.405 4.93752 16.601C4.89131 16.696 4.87061 16.8015 4.87746 16.9069C4.88431 17.0124 4.91847 17.1143 4.97659 17.2025C5.03068 17.2931 5.10735 17.3681 5.1991 17.4201C5.29086 17.4721 5.39454 17.4995 5.50003 17.4994H14.5C14.6055 17.4995 14.7092 17.4721 14.8009 17.4201C14.8927 17.3681 14.9694 17.2931 15.0235 17.2025C15.0816 17.1143 15.1157 17.0124 15.1226 16.9069C15.1294 16.8015 15.1087 16.696 15.0625 16.601C14.4817 15.405 13.4965 14.453 12.2813 13.9135Z" fill="#1C1C1C"/>
</svg>
