<svg width="20" height="20" viewBox="0 0 20 20" fill="none" xmlns="http://www.w3.org/2000/svg">
<path d="M18.1168 16.5623C16.9506 14.5533 15.0839 13.0455 12.8746 12.3279C13.9336 11.6982 14.7565 10.7382 15.217 9.59546C15.6775 8.45269 15.75 7.19035 15.4235 6.00235C15.097 4.81436 14.3894 3.76643 13.4095 3.01955C12.4297 2.27267 11.2317 1.86816 9.99965 1.86816C8.76759 1.86816 7.56961 2.27267 6.58975 3.01955C5.60989 3.76643 4.90234 4.81436 4.5758 6.00235C4.24927 7.19035 4.32181 8.45269 4.78228 9.59546C5.24275 10.7382 6.06568 11.6982 7.12465 12.3279C4.91535 13.0455 3.04866 14.5533 1.88246 16.5623C1.8252 16.6565 1.79492 16.7646 1.79492 16.8748C1.79492 16.985 1.8252 17.0931 1.88246 17.1873C1.93588 17.2831 2.01415 17.3627 2.10903 17.4177C2.20391 17.4727 2.31186 17.501 2.42152 17.4998H17.5778C17.6874 17.501 17.7954 17.4727 17.8903 17.4177C17.9851 17.3627 18.0634 17.2831 18.1168 17.1873C18.1741 17.0931 18.2044 16.985 18.2044 16.8748C18.2044 16.7646 18.1741 16.6565 18.1168 16.5623Z" fill="#1C1C1C"/>
</svg>
