<svg width="21" height="20" viewBox="0 0 21 20" fill="none" xmlns="http://www.w3.org/2000/svg">
<path d="M10.1767 10.4819L7.91343 8.21867C7.80615 8.1114 7.80615 7.93747 7.91343 7.83018C8.02069 7.72292 8.19465 7.72292 8.30191 7.83018L10.5731 10.1014C10.4296 7.19899 8.02333 4.88184 5.08594 4.88184V5.00271C5.08594 7.89648 7.33483 10.2747 10.1767 10.4819Z" fill="#1C1C1C"/>
<path d="M13.9395 7.55548C14.0468 7.44822 14.2207 7.44822 14.328 7.55548C14.4353 7.66277 14.4353 7.8367 14.328 7.94397L11.7752 10.4968H12.2108C15.2403 10.4968 17.7049 8.03215 17.7049 5.00271V4.04126H16.8808C13.8513 4.04126 11.3867 6.50588 11.3867 9.53532V10.1083L13.9395 7.55548Z" fill="#1C1C1C"/>
<path d="M16.7992 9.92584L14.3287 12.3964C14.1637 12.8479 13.7535 13.1877 13.2372 13.2949L9.95167 14.2532C9.80334 14.2965 9.64784 14.2089 9.60879 14.0582C9.57106 13.9126 9.66454 13.7647 9.80892 13.7226L13.0943 12.7643C13.1024 12.7624 13.1106 12.7604 13.1187 12.7584C13.5374 12.6742 13.7595 12.3952 13.8277 12.162C13.8842 11.9688 13.8469 11.785 13.7279 11.6702C13.5245 11.4743 13.1033 11.4633 12.5722 11.6401C12.5601 11.6442 12.5476 11.6475 12.5351 11.6498L10.3374 12.0619C10.2483 12.0785 10.1567 12.0502 10.0926 11.9861C8.47022 10.3638 6.5092 10.4639 4.71229 12.2608C4.66077 12.3123 4.5909 12.3413 4.51804 12.3413H3.35062C3.2368 12.3413 3.14453 12.4336 3.14453 12.5474V15.1569C3.14453 15.2707 3.2368 15.363 3.35062 15.363H5.06746C5.08945 15.363 5.11151 15.3657 5.13287 15.3709C9.36204 16.4032 12.2002 16.2447 13.8091 14.886L17.7843 10.9109C17.9575 10.7376 18.0283 10.4891 17.966 10.239C17.952 10.1828 17.93 10.1286 17.901 10.0784C17.6596 9.66134 17.1146 9.61048 16.7992 9.92584Z" fill="#1C1C1C"/>
</svg>
