<svg width="21" height="20" viewBox="0 0 21 20" fill="none" xmlns="http://www.w3.org/2000/svg">
<path d="M11.5785 0.00338709C11.2564 -0.0303629 10.964 0.191629 10.9245 0.512059C10.8844 0.833622 11.1122 1.12604 11.4332 1.16608C12.2285 1.26507 13.0056 1.54667 13.7432 1.85796C14.0446 1.98319 14.386 1.84194 14.5111 1.54554C14.6364 1.24686 14.4968 0.903505 14.1986 0.777645C13.3615 0.425145 12.4797 0.115536 11.5785 0.00338709Z" fill="#1C1C1C"/>
<path d="M18.1581 4.76191C18.4161 4.56621 18.4665 4.19828 18.2708 3.94078C17.722 3.21808 17.0772 2.5732 16.3545 2.02445C16.0964 1.82992 15.7296 1.87855 15.5333 2.13719C15.3376 2.39469 15.388 2.76262 15.6461 2.95832C16.2841 3.44242 16.8528 4.01117 17.3369 4.64918C17.5333 4.90777 17.9006 4.95668 18.1581 4.76191Z" fill="#1C1C1C"/>
<path d="M18.749 5.78378C18.4509 5.90968 18.3113 6.253 18.4366 6.55167C18.7479 7.28925 19.0673 8.10534 19.1663 8.90073C19.2047 9.21151 19.4857 9.44835 19.8203 9.4094C20.1414 9.36936 20.3691 9.07694 20.329 8.75538C20.2169 7.85417 19.8694 6.93331 19.5169 6.0962C19.3911 5.79807 19.0471 5.66018 18.749 5.78378Z" fill="#1C1C1C"/>
<path d="M6.46973 0.777652C6.1716 0.903551 6.03199 1.24687 6.1573 1.54554C6.28262 1.84257 6.62445 1.98293 6.92519 1.85796C7.66277 1.54668 8.4398 1.26507 9.23519 1.16609C9.55621 1.12605 9.78394 0.833629 9.74387 0.512066C9.70383 0.191636 9.41027 -0.0303951 9.08984 0.00339396C8.18863 0.115542 7.30687 0.425152 6.46973 0.777652Z" fill="#1C1C1C"/>
<path d="M10.334 20C15.3488 20 19.7097 16.2135 20.3294 11.2445C20.3694 10.9235 20.1417 10.6305 19.8207 10.5905C19.498 10.5544 19.2062 10.7782 19.1667 11.0992C18.6197 15.4834 14.7588 18.8281 10.334 18.8281C5.48741 18.8281 1.50586 14.8465 1.50586 9.99999C1.50586 7.86394 2.3534 5.78515 3.73242 4.1975V4.39148C3.73242 4.71535 3.99449 4.97742 4.31835 4.97742C4.64222 4.97742 4.90429 4.71535 4.90429 4.39148V2.73437C4.90429 2.41051 4.64222 2.14844 4.31835 2.14844H2.6607C2.33683 2.14844 2.07476 2.41051 2.07476 2.73437C2.07476 3.05824 2.33683 3.31992 2.6607 3.31992H2.94289C1.31988 5.13464 0.333984 7.52941 0.333984 9.99999C0.333984 15.4926 4.8414 20 10.334 20Z" fill="#1C1C1C"/>
<path d="M3.26367 10C3.26367 13.8773 6.45672 17.0703 10.334 17.0703C14.2113 17.0703 17.4043 13.8773 17.4043 10C17.4043 6.12274 14.2113 2.92969 10.334 2.92969C6.45672 2.92969 3.26367 6.12274 3.26367 10ZM10.9199 7.65625C10.9199 7.33238 11.182 7.07031 11.5059 7.07031C11.8297 7.07031 12.0918 7.33238 12.0918 7.65625V9.41406H13.2637V7.65625C13.2637 7.33238 13.5257 7.07031 13.8496 7.07031C14.1735 7.07031 14.4356 7.33238 14.4356 7.65625V12.3438C14.4356 12.6676 14.1735 12.9297 13.8496 12.9297C13.5257 12.9297 13.2637 12.6676 13.2637 12.3438V10.5859H11.5059C11.182 10.5859 10.9199 10.3239 10.9199 10V7.65625ZM7.99024 8.24219C7.66695 8.24219 7.4043 8.50485 7.4043 8.82813C7.4043 9.15199 7.14223 9.41406 6.81836 9.41406C6.49449 9.41406 6.23242 9.15199 6.23242 8.82813C6.23242 7.85883 7.02094 7.07031 7.99024 7.07031C8.95953 7.07031 9.74805 7.85883 9.74805 8.82813C9.74805 10 8.96813 10.5848 8.34156 11.0546C7.99445 11.3151 7.74727 11.5234 7.59031 11.7578H9.16211C9.48598 11.7578 9.74805 12.0199 9.74805 12.3438C9.74805 12.6676 9.48598 12.9297 9.16211 12.9297H6.81836C6.49449 12.9297 6.23242 12.6676 6.23242 12.3438C6.23242 11.1719 7.01235 10.5871 7.63891 10.1173C8.23746 9.66813 8.57617 9.3866 8.57617 8.82813C8.57617 8.50481 8.31356 8.24219 7.99024 8.24219Z" fill="#1C1C1C"/>
</svg>
