<svg width="32" height="33" viewBox="0 0 32 33" fill="none" xmlns="http://www.w3.org/2000/svg">
<path d="M27 5.5H5.00002C4.46958 5.5 3.96088 5.71071 3.5858 6.08579C3.21073 6.46086 3.00002 6.96957 3.00002 7.5V26.5C2.999 26.6706 3.04222 26.8386 3.12547 26.9876C3.20872 27.1366 3.32915 27.2614 3.47502 27.35C3.61972 27.441 3.78531 27.4933 3.956 27.5021C4.12669 27.5108 4.29677 27.4757 4.45002 27.4L8.00002 25.6125L11.55 27.4C11.6904 27.4676 11.8442 27.5027 12 27.5027C12.1558 27.5027 12.3096 27.4676 12.45 27.4L16 25.6125L19.55 27.4C19.6909 27.4659 19.8445 27.5 20 27.5C20.1555 27.5 20.3091 27.4659 20.45 27.4L24 25.6125L27.55 27.4C27.7033 27.4757 27.8733 27.5108 28.044 27.5021C28.2147 27.4933 28.3803 27.441 28.525 27.35C28.6709 27.2614 28.7913 27.1366 28.8746 26.9876C28.9578 26.8386 29.001 26.6706 29 26.5V7.5C29 6.96957 28.7893 6.46086 28.4142 6.08579C28.0392 5.71071 27.5305 5.5 27 5.5ZM22.5 18.5H9.50002C9.2348 18.5 8.98045 18.3946 8.79291 18.2071C8.60537 18.0196 8.50002 17.7652 8.50002 17.5C8.50002 17.2348 8.60537 16.9804 8.79291 16.7929C8.98045 16.6054 9.2348 16.5 9.50002 16.5H22.5C22.7652 16.5 23.0196 16.6054 23.2071 16.7929C23.3947 16.9804 23.5 17.2348 23.5 17.5C23.5 17.7652 23.3947 18.0196 23.2071 18.2071C23.0196 18.3946 22.7652 18.5 22.5 18.5ZM22.5 14.5H9.50002C9.2348 14.5 8.98045 14.3946 8.79291 14.2071C8.60537 14.0196 8.50002 13.7652 8.50002 13.5C8.50002 13.2348 8.60537 12.9804 8.79291 12.7929C8.98045 12.6054 9.2348 12.5 9.50002 12.5H22.5C22.7652 12.5 23.0196 12.6054 23.2071 12.7929C23.3947 12.9804 23.5 13.2348 23.5 13.5C23.5 13.7652 23.3947 14.0196 23.2071 14.2071C23.0196 14.3946 22.7652 14.5 22.5 14.5Z" fill="#1C1C1C"/>
</svg>
