<svg width="128" height="128" viewBox="0 0 128 128" fill="none" xmlns="http://www.w3.org/2000/svg">
<rect width="128" height="128" rx="64" fill="white" fill-opacity="0.03"/>
<rect x="0.486648" y="0.486648" width="127.027" height="127.027" rx="63.5134" stroke="url(#paint0_linear_4461_23542)" stroke-opacity="0.5" stroke-width="0.973296"/>
<g clip-path="url(#clip0_4461_23542)">
<path d="M64 114C91.6142 114 114 91.6142 114 64C114 36.3858 91.6142 14 64 14C36.3858 14 14 36.3858 14 64C14 91.6142 36.3858 114 64 114Z" fill="url(#paint1_linear_4461_23542)"/>
<path d="M48.5999 73.4303C48.7356 73.2892 48.8988 73.1774 49.0794 73.1017C49.2599 73.0261 49.4541 72.9882 49.6499 72.9903H86.1499C86.2515 72.9954 86.3511 73.0206 86.4429 73.0644C86.5347 73.1082 86.6169 73.1698 86.6848 73.2456C86.7527 73.3214 86.8049 73.4099 86.8383 73.5059C86.8718 73.602 86.8859 73.7038 86.8799 73.8053C86.8716 73.9907 86.7991 74.1675 86.6749 74.3053L79.4649 81.5003C79.1863 81.7793 78.8091 81.9373 78.4149 81.9403H41.9149C41.7558 81.9533 41.5967 81.9148 41.4611 81.8305C41.3255 81.7462 41.2206 81.6206 41.1618 81.4722C41.103 81.3238 41.0934 81.1604 41.1344 81.0061C41.1755 80.8519 41.2651 80.7149 41.3899 80.6153L48.5999 73.4303Z" fill="url(#paint2_linear_4461_23542)"/>
<path d="M48.5997 46.4997C48.8775 46.2189 49.2548 46.059 49.6497 46.0547H86.1497C86.2965 46.0567 86.4395 46.1018 86.5609 46.1844C86.6823 46.2669 86.7768 46.3833 86.8327 46.5191C86.8886 46.6548 86.9034 46.804 86.8753 46.9481C86.8472 47.0922 86.7775 47.2249 86.6747 47.3297L79.4647 54.5697C79.1861 54.8486 78.8089 55.0067 78.4147 55.0097H41.9147C41.7099 54.9981 41.5181 54.9058 41.3813 54.753C41.2445 54.6002 41.1738 54.3995 41.1847 54.1947C41.193 54.0093 41.2654 53.8325 41.3897 53.6947L48.5997 46.4997Z" fill="url(#paint3_linear_4461_23542)"/>
<path d="M79.4647 59.8805C79.3285 59.7397 79.1653 59.6277 78.9849 59.5513C78.8046 59.4748 78.6106 59.4355 78.4147 59.4355H41.9147C41.7099 59.4472 41.5181 59.5395 41.3813 59.6922C41.2445 59.845 41.1738 60.0458 41.1847 60.2505C41.1921 60.4361 41.2647 60.6132 41.3897 60.7505L48.5997 67.9255C48.7359 68.0664 48.8991 68.1784 49.0794 68.2548C49.2598 68.3313 49.4538 68.3706 49.6497 68.3705H86.1497C86.2965 68.3685 86.4395 68.3234 86.5609 68.2408C86.6823 68.1583 86.7768 68.0419 86.8327 67.9062C86.8886 67.7704 86.9034 67.6213 86.8753 67.4772C86.8472 67.3331 86.7775 67.2004 86.6747 67.0955L79.4647 59.8805Z" fill="url(#paint4_linear_4461_23542)"/>
</g>
<defs>
<linearGradient id="paint0_linear_4461_23542" x1="30.8571" y1="-32.9847" x2="70.1839" y2="156.271" gradientUnits="userSpaceOnUse">
<stop stop-color="#FAFAFA"/>
<stop offset="1" stop-color="#FAFAFA" stop-opacity="0"/>
</linearGradient>
<linearGradient id="paint1_linear_4461_23542" x1="64" y1="114" x2="64" y2="14" gradientUnits="userSpaceOnUse">
<stop stop-color="#170E2B"/>
<stop offset="1" stop-color="#210066"/>
</linearGradient>
<linearGradient id="paint2_linear_4461_23542" x1="82.6499" y1="41.7503" x2="57.3749" y2="90.1503" gradientUnits="userSpaceOnUse">
<stop stop-color="#00FFA3"/>
<stop offset="1" stop-color="#DC1FFF"/>
</linearGradient>
<linearGradient id="paint3_linear_4461_23542" x1="71.6197" y1="35.9847" x2="46.3697" y2="84.3897" gradientUnits="userSpaceOnUse">
<stop stop-color="#00FFA3"/>
<stop offset="1" stop-color="#DC1FFF"/>
</linearGradient>
<linearGradient id="paint4_linear_4461_23542" x1="77.1197" y1="38.8606" x2="51.8397" y2="87.2605" gradientUnits="userSpaceOnUse">
<stop stop-color="#00FFA3"/>
<stop offset="1" stop-color="#DC1FFF"/>
</linearGradient>
<clipPath id="clip0_4461_23542">
<rect width="100" height="100" fill="white" transform="translate(14 14)"/>
</clipPath>
</defs>
</svg>
