<svg width="21" height="20" viewBox="0 0 21 20" fill="none" xmlns="http://www.w3.org/2000/svg">
<g clip-path="url(#clip0_4461_26374)">
<path d="M20.2005 8.43036L18.2068 4.4413C18.1333 4.29447 18.0317 4.16356 17.9076 4.05602C17.7836 3.94849 17.6396 3.86644 17.4838 3.81457C17.328 3.7627 17.1636 3.74202 16.9998 3.75371C16.8361 3.7654 16.6762 3.80923 16.5294 3.8827L14.5865 4.8538L10.4935 3.77099C10.3885 3.74366 10.2782 3.74366 10.1732 3.77099L6.08021 4.8538L4.13725 3.8827C3.99043 3.80923 3.83059 3.7654 3.66684 3.75371C3.50308 3.74202 3.33863 3.7627 3.18287 3.81457C3.02711 3.86644 2.8831 3.94849 2.75905 4.05602C2.635 4.16356 2.53335 4.29447 2.4599 4.4413L0.466152 8.42958C0.39268 8.57639 0.348848 8.73624 0.337158 8.89999C0.325467 9.06374 0.346148 9.22819 0.39802 9.38395C0.449891 9.53971 0.531937 9.68373 0.639472 9.80778C0.747006 9.93182 0.877923 10.0335 1.02475 10.1069L3.13412 11.1624L7.46928 14.2585C7.53316 14.3039 7.60496 14.3371 7.681 14.3561L12.681 15.6061C12.7857 15.6324 12.8954 15.6311 12.9995 15.6023C13.1035 15.5736 13.1984 15.5184 13.2747 15.4421L16.3997 12.3171L17.5779 11.139L19.6419 10.1069C19.9383 9.95859 20.1635 9.69866 20.2683 9.38428C20.373 9.06989 20.3487 8.72678 20.2005 8.43036ZM15.9122 11.0374L13.224 8.88427C13.1035 8.78782 12.9517 8.73933 12.7976 8.74813C12.6436 8.75692 12.4983 8.82239 12.3896 8.93192C10.9982 10.3335 9.4474 10.1561 8.45834 9.53114L11.8365 6.24989H14.3216L16.4474 10.5007L15.9122 11.0374ZM12.6412 14.3077L8.10053 13.1725L4.25678 10.4272L6.44428 6.05224L10.3333 5.02177L11.099 5.22411L7.58334 8.63661L7.57709 8.64364C7.44475 8.77598 7.34382 8.93635 7.28174 9.11291C7.21966 9.28947 7.19802 9.47771 7.21842 9.66375C7.23881 9.84979 7.30072 10.0289 7.39958 10.1878C7.49844 10.3467 7.63172 10.4814 7.78959 10.5819C9.39584 11.6077 11.3341 11.4413 12.8607 10.1913L15.0208 11.9265L12.6412 14.3077ZM10.6318 17.0265C10.598 17.1615 10.5201 17.2815 10.4104 17.3672C10.3007 17.453 10.1655 17.4997 10.0263 17.4999C9.97496 17.4998 9.9238 17.4935 9.87397 17.4811L6.61537 16.6663C6.53923 16.6475 6.46737 16.6144 6.40365 16.5686L4.34506 15.0983C4.21848 14.9989 4.13512 14.8546 4.11233 14.6953C4.08954 14.536 4.12907 14.374 4.22271 14.2431C4.31634 14.1122 4.45686 14.0225 4.61499 13.9926C4.77312 13.9627 4.93669 13.995 5.07162 14.0827L7.03334 15.4843L10.1771 16.2686C10.3379 16.3089 10.4761 16.4113 10.5613 16.5534C10.6466 16.6955 10.6719 16.8657 10.6318 17.0265Z" fill="#1C1C1C"/>
</g>
<defs>
<clipPath id="clip0_4461_26374">
<rect width="20" height="20" fill="white" transform="translate(0.333984)"/>
</clipPath>
</defs>
</svg>
