<svg width="128" height="128" viewBox="0 0 128 128" fill="none" xmlns="http://www.w3.org/2000/svg">
<rect width="128" height="128" rx="64" fill="white" fill-opacity="0.03"/>
<rect x="0.486648" y="0.486648" width="127.027" height="127.027" rx="63.5134" stroke="url(#paint0_linear_4461_23500)" stroke-opacity="0.5" stroke-width="0.973296"/>
<g clip-path="url(#clip0_4461_23500)">
<g clip-path="url(#clip1_4461_23500)">
<path d="M64 114C91.6142 114 114 91.6142 114 64C114 36.3858 91.6142 14 64 14C36.3858 14 14 36.3858 14 64C14 91.6142 36.3858 114 64 114Z" fill="url(#paint1_linear_4461_23500)"/>
<path d="M76.9592 70.9494C76.9592 64.1094 72.8792 61.7444 64.6892 60.7944C58.8592 59.9944 57.6892 58.4644 57.6892 55.6994C57.6892 52.9344 59.6542 51.1994 63.5492 51.1994C64.9398 50.9817 66.3621 51.2799 67.5482 52.0378C68.7343 52.7957 69.6024 53.961 69.9892 55.3144C70.0909 55.6022 70.278 55.8521 70.5255 56.0308C70.7729 56.2095 71.069 56.3084 71.3742 56.3144H74.4392C74.7921 56.3158 75.1316 56.179 75.3849 55.9332C75.6381 55.6874 75.7851 55.3522 75.7942 54.9994V54.9094C75.4205 52.794 74.3569 50.8619 72.7695 49.4146C71.182 47.9674 69.16 47.0865 67.0192 46.9094V42.0494C67.0192 41.2794 66.4392 40.6994 65.4592 40.4844H62.3892C61.6242 40.4844 61.0392 41.0644 60.8542 42.0494V46.5494C58.3506 46.6466 55.9755 47.6834 54.2019 49.4532C52.4284 51.223 51.3867 53.596 51.2842 56.0994C51.2842 62.5444 55.1792 65.0994 63.3692 66.0694C68.8292 67.0194 70.6092 68.2194 70.6092 71.3144C70.6092 74.4094 67.8792 76.5944 64.1692 76.5944C59.0742 76.5944 57.3292 74.4444 56.7442 71.5294C56.686 71.2048 56.5162 70.9108 56.2642 70.6981C56.0123 70.4854 55.6939 70.3673 55.3642 70.3644H52.1742C52.0009 70.3604 51.8284 70.3906 51.6667 70.4533C51.5051 70.516 51.3573 70.6099 51.232 70.7297C51.1066 70.8495 51.006 70.9928 50.9361 71.1515C50.8661 71.3101 50.8281 71.481 50.8242 71.6544V71.8994C51.1756 74.4381 52.4112 76.7716 54.3135 78.4891C56.2158 80.2067 58.6629 81.1983 61.2242 81.2894V85.9994C61.2242 86.7694 61.8042 87.3494 62.7892 87.5344H65.8542C66.2574 87.5134 66.6391 87.3458 66.9273 87.0631C67.2155 86.7804 67.3905 86.4021 67.4192 85.9994V81.3094C70.0284 81.077 72.4619 79.8965 74.2595 77.9911C76.0571 76.0857 77.094 73.5876 77.1742 70.9694L76.9592 70.9494Z" fill="white"/>
<path d="M54.0543 91.3199C48.4028 89.2814 43.5175 85.5496 40.0645 80.6333C36.6114 75.7169 34.7585 69.8552 34.7585 63.8474C34.7585 57.8395 36.6114 51.9779 40.0645 47.0615C43.5175 42.1451 48.4028 38.4133 54.0543 36.3749C54.4258 36.2055 54.7366 35.9263 54.9449 35.5751C55.1532 35.2238 55.2489 34.8172 55.2193 34.4099V31.7699C55.2351 31.4188 55.1271 31.0733 54.9142 30.7936C54.7013 30.514 54.3969 30.318 54.0543 30.2399C53.7715 30.2069 53.4869 30.2839 53.2593 30.4549C46.157 32.7158 39.958 37.1774 35.559 43.1943C31.16 49.2112 28.7891 56.4714 28.7891 63.9249C28.7891 71.3783 31.16 78.6386 35.559 84.6555C39.958 90.6724 46.157 95.1339 53.2593 97.3949C53.5325 97.5552 53.8582 97.6005 54.1647 97.5208C54.4713 97.4411 54.7337 97.243 54.8943 96.9699C54.963 96.8538 55.012 96.727 55.0393 96.5949C55.2193 96.4149 55.2193 96.2299 55.2193 95.8299V93.0999C55.165 92.7367 55.0328 92.3896 54.8317 92.0823C54.6306 91.7751 54.3654 91.515 54.0543 91.3199ZM74.7343 30.4199C74.469 30.2598 74.151 30.2114 73.8501 30.2855C73.5492 30.3595 73.2899 30.5499 73.1293 30.8149C73.0584 30.93 73.0093 31.0571 72.9843 31.1899C72.7993 31.4049 72.7993 31.5899 72.7993 31.9849V34.7149C72.8325 35.105 72.9549 35.4823 73.1568 35.8178C73.3588 36.1533 73.635 36.4379 73.9643 36.6499C79.5853 38.7061 84.4389 42.4398 87.868 47.3455C91.2971 52.2512 93.1361 58.092 93.1361 64.0774C93.1361 70.0627 91.2971 75.9036 87.868 80.8093C84.4389 85.715 79.5853 89.4486 73.9643 91.5049C73.5895 91.6701 73.2758 91.9484 73.0669 92.3007C72.858 92.653 72.7644 93.0618 72.7993 93.4699V96.1999C72.7749 96.5568 72.8789 96.9107 73.0926 97.1977C73.3062 97.4846 73.6154 97.6858 73.9643 97.7649C74.2387 97.7909 74.513 97.7143 74.7343 97.5499C81.8413 95.2664 88.0401 90.7859 92.4377 84.7539C96.8353 78.7219 99.2048 71.4497 99.2048 63.9849C99.2048 56.52 96.8353 49.2478 92.4377 43.2158C88.0401 37.1838 81.8413 32.7034 74.7343 30.4199Z" fill="white"/>
</g>
</g>
<defs>
<linearGradient id="paint0_linear_4461_23500" x1="30.8571" y1="-32.9847" x2="70.1839" y2="156.271" gradientUnits="userSpaceOnUse">
<stop stop-color="#FAFAFA"/>
<stop offset="1" stop-color="#FAFAFA" stop-opacity="0"/>
</linearGradient>
<linearGradient id="paint1_linear_4461_23500" x1="64" y1="114" x2="64" y2="14" gradientUnits="userSpaceOnUse">
<stop stop-color="#0750A1"/>
<stop offset="1" stop-color="#268DFF"/>
</linearGradient>
<clipPath id="clip0_4461_23500">
<rect width="100" height="100" fill="white" transform="translate(14 14)"/>
</clipPath>
<clipPath id="clip1_4461_23500">
<rect width="100" height="100" fill="white" transform="translate(14 14)"/>
</clipPath>
</defs>
</svg>
