<svg width="128" height="128" viewBox="0 0 128 128" fill="none" xmlns="http://www.w3.org/2000/svg">
<rect width="128" height="128" rx="64" fill="white" fill-opacity="0.03"/>
<rect x="0.486648" y="0.486648" width="127.027" height="127.027" rx="63.5134" stroke="url(#paint0_linear_4461_23510)" stroke-opacity="0.5" stroke-width="0.973296"/>
<g clip-path="url(#clip0_4461_23510)">
<path d="M64 114C91.6142 114 114 91.6142 114 64C114 36.3858 91.6142 14 64 14C36.3858 14 14 36.3858 14 64C14 91.6142 36.3858 114 64 114Z" fill="url(#paint1_linear_4461_23510)"/>
<path d="M69.1897 57.845V51.94H82.6247V42.625H45.3397V51.94H58.8097V57.845C47.5247 58.39 39.0547 60.655 39.0547 63.345C39.0547 66.035 47.5147 68.31 58.8097 68.845V88.345H69.1897V68.845C80.4747 68.305 88.9447 66.04 88.9447 63.345C88.9447 60.65 80.4997 58.39 69.1897 57.845ZM63.9997 67.125C51.7797 67.125 41.8747 65.235 41.8747 62.96C41.8747 61.005 49.0897 59.36 58.7997 58.92V65.59C60.4697 65.665 62.2047 65.71 63.9897 65.71C65.7747 65.71 67.5197 65.665 69.1797 65.59V58.92C78.8897 59.36 86.1047 61.005 86.1047 62.96C86.1247 65.26 76.2197 67.125 63.9997 67.125Z" fill="white"/>
</g>
<defs>
<linearGradient id="paint0_linear_4461_23510" x1="30.8571" y1="-32.9847" x2="70.1839" y2="156.271" gradientUnits="userSpaceOnUse">
<stop stop-color="#FAFAFA"/>
<stop offset="1" stop-color="#FAFAFA" stop-opacity="0"/>
</linearGradient>
<linearGradient id="paint1_linear_4461_23510" x1="64" y1="114" x2="64" y2="14" gradientUnits="userSpaceOnUse">
<stop stop-color="#17755D"/>
<stop offset="1" stop-color="#68CCB2"/>
</linearGradient>
<clipPath id="clip0_4461_23510">
<rect width="100" height="100" fill="white" transform="translate(14 14)"/>
</clipPath>
</defs>
</svg>
