<svg width="33" height="32" viewBox="0 0 33 32" fill="none" xmlns="http://www.w3.org/2000/svg">
<g clip-path="url(#clip0_4461_24208)">
<path d="M21.0592 24.4539C21.1576 24.6047 21.2134 24.7794 21.2207 24.9594C21.2281 25.1394 21.1866 25.318 21.1009 25.4764C21.0151 25.6348 20.8881 25.767 20.7333 25.8592C20.5786 25.9514 20.4018 26.0001 20.2217 26.0001H1.77917C1.59904 26.0001 1.42226 25.9514 1.26751 25.8592C1.11276 25.767 0.985782 25.6348 0.899993 25.4764C0.814204 25.318 0.77279 25.1394 0.780127 24.9594C0.787464 24.7794 0.843279 24.6047 0.941675 24.4539C2.34931 22.2872 4.41979 20.6337 6.84417 19.7401C5.50392 18.8479 4.48639 17.548 3.94205 16.0327C3.3977 14.5174 3.35545 12.8671 3.82154 11.326C4.28762 9.78483 5.2373 8.43458 6.53014 7.4749C7.82298 6.51522 9.39033 5.99707 11.0004 5.99707C12.6105 5.99707 14.1779 6.51522 15.4707 7.4749C16.7635 8.43458 17.7132 9.78483 18.1793 11.326C18.6454 12.8671 18.6031 14.5174 18.0588 16.0327C17.5145 17.548 16.4969 18.8479 15.1567 19.7401C17.5811 20.6337 19.6515 22.2872 21.0592 24.4539ZM32.0479 24.4351C30.6399 22.2775 28.5741 20.6311 26.1567 19.7401C27.7389 18.6743 28.8555 17.0456 29.2792 15.1855C29.703 13.3255 29.4019 11.3738 28.4374 9.7279C27.4729 8.08195 25.9175 6.86541 24.0876 6.3259C22.2578 5.78639 20.2911 5.96446 18.5879 6.82386C18.5228 6.85749 18.4659 6.90502 18.4211 6.9631C18.3764 7.02118 18.345 7.08837 18.3292 7.15993C18.3133 7.23149 18.3134 7.30566 18.3294 7.37719C18.3453 7.44872 18.3769 7.51587 18.4217 7.57386C19.6881 9.15363 20.4155 11.0974 20.4971 13.1205C20.5788 15.1436 20.0105 17.1397 18.8754 18.8164C18.8021 18.9259 18.775 19.0601 18.8 19.1895C18.8251 19.319 18.9002 19.4333 19.0092 19.5076C20.489 20.5405 21.7559 21.8489 22.7404 23.3614C23.1375 23.9694 23.2997 24.7012 23.1967 25.4201C23.1851 25.4916 23.1892 25.5648 23.2087 25.6346C23.2281 25.7044 23.2625 25.7691 23.3095 25.8242C23.3565 25.8794 23.4149 25.9237 23.4806 25.9541C23.5464 25.9844 23.618 26.0001 23.6904 26.0001H31.2279C31.4481 26.0002 31.6622 25.9276 31.8369 25.7935C32.0116 25.6595 32.1372 25.4716 32.1942 25.2589C32.2289 25.119 32.2339 24.9733 32.2087 24.8314C32.1835 24.6895 32.1287 24.5545 32.0479 24.4351Z" fill="#1C1C1C"/>
</g>
<defs>
<clipPath id="clip0_4461_24208">
<rect width="32" height="32" fill="white" transform="translate(0.5)"/>
</clipPath>
</defs>
</svg>
