<svg width="33" height="32" viewBox="0 0 33 32" fill="none" xmlns="http://www.w3.org/2000/svg">
<g clip-path="url(#clip0_4461_23862)">
<path d="M22.4504 3.36247V5.78947C22.2029 5.69729 21.9895 5.53164 21.8388 5.31474C21.6881 5.09784 21.6074 4.84006 21.6074 4.57597C21.6074 4.31187 21.6881 4.05409 21.8388 3.83719C21.9895 3.62029 22.2029 3.45464 22.4504 3.36247ZM23.3539 9.28247C23.6014 9.1903 23.8148 9.02466 23.9655 8.80775C24.1161 8.59084 24.1969 8.33305 24.1969 8.06893C24.1969 7.80482 24.1161 7.54703 23.9655 7.33012C23.8148 7.11321 23.6014 6.94757 23.3539 6.8554V9.28247ZM27.3735 10.7941C26.3392 11.8292 24.9779 12.4737 23.5217 12.6176C22.0655 12.7616 20.6045 12.3961 19.3875 11.5835C18.1705 10.771 17.273 9.56157 16.8478 8.1614C16.4226 6.76123 16.4961 5.25695 17.0557 3.90488C17.6153 2.55282 18.6265 1.43663 19.9168 0.746535C21.2072 0.0564362 22.6969 -0.164876 24.1322 0.12031C25.5674 0.405496 26.8594 1.17953 27.7879 2.31052C28.7164 3.44151 29.224 4.85947 29.2242 6.32278C29.2252 7.1532 29.0622 7.97565 28.7446 8.74295C28.427 9.51024 27.9611 10.2073 27.3735 10.7941ZM23.3539 5.9174V3.3624C23.6012 3.45484 23.8144 3.62055 23.9651 3.83741C24.1157 4.05426 24.1966 4.31192 24.1969 4.57597C24.1969 4.69578 24.2444 4.81068 24.3292 4.8954C24.4139 4.98012 24.5288 5.02772 24.6486 5.02772C24.7684 5.02772 24.8833 4.98012 24.968 4.8954C25.0528 4.81068 25.1004 4.69578 25.1004 4.57597C25.0997 4.07154 24.9259 3.58263 24.608 3.191C24.2901 2.79936 23.8474 2.52875 23.3539 2.4244V1.66284C23.3539 1.54303 23.3063 1.42812 23.2215 1.34341C23.1368 1.25869 23.0219 1.21109 22.9021 1.21109C22.7823 1.21109 22.6674 1.25869 22.5827 1.34341C22.4979 1.42812 22.4504 1.54303 22.4504 1.66284V2.4244C21.9566 2.52818 21.5135 2.79864 21.1955 3.1904C20.8775 3.58217 20.704 4.07139 20.704 4.57597C20.704 5.08054 20.8775 5.56976 21.1955 5.96153C21.5135 6.35329 21.9566 6.62375 22.4504 6.72753V9.28247C22.203 9.19007 21.9898 9.02439 21.8391 8.80757C21.6885 8.59075 21.6076 8.33312 21.6072 8.06909C21.6058 7.95021 21.5576 7.83667 21.4731 7.7531C21.3885 7.66952 21.2744 7.62265 21.1555 7.62265C21.0366 7.62265 20.9225 7.66952 20.838 7.7531C20.7534 7.83667 20.7052 7.95021 20.7038 8.06909C20.7044 8.57351 20.8782 9.06242 21.1961 9.45405C21.514 9.84569 21.9567 10.1163 22.4502 10.2207V10.9842C22.4502 11.104 22.4978 11.2189 22.5825 11.3037C22.6673 11.3884 22.7822 11.436 22.902 11.436C23.0218 11.436 23.1367 11.3884 23.2214 11.3037C23.3061 11.2189 23.3537 11.104 23.3537 10.9842V10.2205C23.8475 10.1167 24.2906 9.84627 24.6086 9.45451C24.9266 9.06275 25.1002 8.57352 25.1002 8.06893C25.1002 7.56435 24.9266 7.07512 24.6086 6.68336C24.2906 6.29159 23.8475 6.02115 23.3537 5.9174H23.3539ZM31.8907 14.7042L30.5123 13.8323L29.1352 12.9581C29.0683 12.9156 28.9913 12.8915 28.9121 12.8881C28.8329 12.8848 28.7542 12.9024 28.6839 12.9391C28.6136 12.9759 28.5543 13.0305 28.5118 13.0974C28.4693 13.1644 28.4452 13.2414 28.4419 13.3206L28.3084 16.5818C28.306 16.6411 28.3153 16.7003 28.3357 16.756C28.3562 16.8116 28.3874 16.8627 28.4277 16.9063C28.4679 16.9499 28.5163 16.9852 28.5701 17.0101C28.624 17.035 28.6822 17.049 28.7415 17.0514H28.7602C28.8768 17.0513 28.9888 17.0062 29.0729 16.9254C29.1569 16.8446 29.2065 16.7345 29.2112 16.618L29.2816 14.8923C29.6857 15.7362 29.9558 16.6379 30.0822 17.5649C30.6822 21.9482 27.9401 26.1925 23.7035 27.4376C23.6466 27.4543 23.5935 27.4821 23.5473 27.5193C23.5012 27.5566 23.4628 27.6025 23.4343 27.6546C23.4059 27.7067 23.3881 27.7638 23.3817 27.8228C23.3754 27.8818 23.3808 27.9415 23.3975 27.9984C23.4142 28.0553 23.442 28.1083 23.4793 28.1545C23.5165 28.2007 23.5625 28.2391 23.6145 28.2675C23.6666 28.2959 23.7238 28.3138 23.7827 28.3201C23.8417 28.3264 23.9014 28.3211 23.9583 28.3043C25.3185 27.9023 26.5768 27.2133 27.6482 26.2838C28.7197 25.3543 29.5794 24.206 30.1695 22.9161C30.7596 21.6263 31.0663 20.2249 31.0691 18.8065C31.0718 17.3881 30.7704 15.9856 30.1852 14.6935L31.4077 15.4677C31.5089 15.5303 31.6307 15.5503 31.7466 15.5236C31.8626 15.4969 31.9633 15.4255 32.0269 15.3249C32.0905 15.2244 32.1119 15.1028 32.0864 14.9866C32.0609 14.8703 31.9905 14.7689 31.8907 14.7042ZM13.365 22.2017C12.2388 22.1998 11.1216 22.4024 10.0677 22.7997C9.85339 23.6726 9.32047 24.4338 8.5736 24.9339C9.99261 25.3646 11.2356 26.2401 12.1191 27.4312C13.0025 28.6222 13.4797 30.0657 13.4802 31.5487C13.4803 31.7025 13.4543 31.8552 13.4034 32.0003H22.262C22.3818 32.0001 22.4965 31.9524 22.5811 31.8678C22.6658 31.7831 22.7135 31.6684 22.7137 31.5487C22.7129 29.0696 21.7276 26.6924 19.9746 24.9396C18.2215 23.1869 15.8441 22.2021 13.365 22.2017ZM6.57129 19.2446C5.94726 19.2446 5.34254 19.461 4.86017 19.8569C4.3778 20.2528 4.04763 20.8037 3.9259 21.4158C3.80418 22.0278 3.89843 22.6631 4.19261 23.2135C4.48678 23.7638 4.96268 24.1951 5.53921 24.4339C6.11574 24.6727 6.75724 24.7042 7.3544 24.5231C7.95156 24.3419 8.46743 23.9593 8.81413 23.4405C9.16082 22.9216 9.31689 22.2986 9.25573 21.6776C9.19457 21.0565 8.91997 20.4759 8.47873 20.0347C8.22858 19.7837 7.93125 19.5846 7.60385 19.449C7.27646 19.3134 6.92547 19.2439 6.5711 19.2446H6.57129ZM10.5032 14.3873C9.84221 15.0494 9.43122 15.9201 9.3402 16.8512C9.24917 17.7822 9.48375 18.716 10.004 19.4936C10.5242 20.2711 11.2979 20.8442 12.1932 21.1153C13.0886 21.3864 14.0502 21.3387 14.9144 20.9804C15.7785 20.622 16.4917 19.9752 16.9324 19.15C17.3732 18.3248 17.5142 17.3724 17.3315 16.4549C17.1488 15.5374 16.6537 14.7116 15.9305 14.1182C15.2073 13.5248 14.3007 13.2005 13.3652 13.2005C12.8334 13.1997 12.3067 13.3042 11.8155 13.5079C11.3243 13.7116 10.8782 14.0105 10.503 14.3873H10.5032ZM6.5711 25.5429C5.78229 25.5428 5.00118 25.698 4.27237 25.9998C3.54356 26.3015 2.88132 26.7439 2.32346 27.3016C1.7656 27.8592 1.32305 28.5213 1.02107 29.2501C0.719089 29.9788 0.5636 30.7598 0.563477 31.5487C0.563741 31.6684 0.611423 31.7831 0.696087 31.8678C0.780751 31.9524 0.895502 32.0001 1.01523 32.0003H12.1251C12.2448 32.0001 12.3596 31.9524 12.4442 31.8678C12.5289 31.7831 12.5765 31.6684 12.5768 31.5487C12.5765 29.9559 11.9437 28.4285 10.8175 27.3022C9.69126 26.176 8.16384 25.5432 6.5711 25.5429ZM5.82235 18.4179C5.87944 18.4729 5.95001 18.512 6.02697 18.5311C6.10392 18.5502 6.18456 18.5487 6.26076 18.5268C6.33696 18.5049 6.40605 18.4633 6.46107 18.4062C6.5161 18.3491 6.55512 18.2785 6.57423 18.2015L7.3606 15.036C7.3895 14.9198 7.37103 14.7968 7.30926 14.6941C7.24748 14.5915 7.14746 14.5176 7.0312 14.4887C6.91493 14.4598 6.79195 14.4783 6.6893 14.54C6.58665 14.6018 6.51275 14.7018 6.48385 14.8181L6.10779 16.3316C6.01254 15.815 5.96254 15.2912 5.95835 14.7659C5.92098 10.3423 9.18223 6.48284 13.5439 5.78834C13.6616 5.76879 13.7667 5.7035 13.8364 5.60671C13.9061 5.50992 13.9347 5.38949 13.916 5.2717C13.8973 5.15391 13.8327 5.04831 13.7364 4.97794C13.6401 4.90757 13.5198 4.87815 13.4019 4.89609C12.0871 5.10718 10.8282 5.58085 9.70039 6.28885C8.57254 6.99685 7.59879 7.92469 6.83718 9.01706C6.07558 10.1094 5.54172 11.344 5.26742 12.6471C4.99312 13.9502 4.984 15.2951 5.2406 16.6018L4.10098 15.5033C4.01473 15.4201 3.89899 15.3747 3.77921 15.3768C3.65944 15.379 3.54543 15.4287 3.46229 15.515C3.37914 15.6012 3.33366 15.717 3.33586 15.8367C3.33805 15.9565 3.38773 16.0705 3.47398 16.1537L5.82235 18.4179Z" fill="#1C1C1C"/>
</g>
<defs>
<clipPath id="clip0_4461_23862">
<rect width="32" height="32" fill="white" transform="translate(0.333008)"/>
</clipPath>
</defs>
</svg>
