<svg width="18" height="18" viewBox="0 0 18 18" fill="none" xmlns="http://www.w3.org/2000/svg">
<g clip-path="url(#clip0_5655_3239)">
<path d="M9 18C13.9706 18 18 13.9706 18 9C18 4.02944 13.9706 0 9 0C4.02944 0 0 4.02944 0 9C0 13.9706 4.02944 18 9 18Z" fill="#D80027"/>
<path d="M4.92539 5.47754L5.70234 7.86816H8.21601L6.18398 9.34824L6.96094 11.7389L4.92539 10.2623L2.88984 11.7389L3.67031 9.34824L1.63477 7.86816H4.14844L4.92539 5.47754Z" fill="#FFDA44"/>
<path d="M10.6697 13.9396L10.0756 13.2083L9.19668 13.5493L9.70645 12.7583L9.1123 12.0235L10.0229 12.2661L10.5361 11.4751L10.5854 12.4173L11.4994 12.6599L10.617 12.9974L10.6697 13.9396Z" fill="#FFDA44"/>
<path d="M11.851 11.795L12.1322 10.895L11.3623 10.3501L12.3045 10.336L12.5822 9.43604L12.8881 10.329L13.8303 10.3185L13.0744 10.881L13.3768 11.7739L12.6068 11.229L11.851 11.795Z" fill="#FFDA44"/>
<path d="M13.4439 6.60566L13.0291 7.45293L13.7041 8.11035L12.7725 7.97676L12.3576 8.82051L12.1959 7.89238L11.2607 7.75879L12.0975 7.31934L11.9357 6.3877L12.6107 7.04512L13.4439 6.60566Z" fill="#FFDA44"/>
<path d="M10.6946 4.03955L10.6243 4.97822L11.4997 5.3333L10.5821 5.5583L10.5153 6.50049L10.0196 5.69893L9.10205 5.92393L9.71025 5.20322L9.21104 4.40518L10.0864 4.76025L10.6946 4.03955Z" fill="#FFDA44"/>
</g>
<defs>
<clipPath id="clip0_5655_3239">
<rect width="18" height="18" fill="white"/>
</clipPath>
</defs>
</svg>
