<svg width="18" height="18" viewBox="0 0 18 18" fill="none" xmlns="http://www.w3.org/2000/svg">
<g clip-path="url(#clip0_5655_3227)">
<path d="M15.5173 2.79559L14.5862 3.41631L13.0344 3.10595L12.1033 2.79559L10.8618 3.10595L9.93066 2.79559L10.5514 1.55411H11.7929L13.0095 0.945801C13.9478 1.40979 14.7967 2.0361 15.5173 2.79559Z" fill="#03AA6F"/>
<path d="M8.37865 1.55388L8.06829 2.485L7.13718 2.79536L6.20606 4.34719L4.65423 5.27831L2.48167 5.58867V6.51978L3.10239 7.1405V8.38198L2.17135 7.76122L1.24023 7.1405L0.700195 5.5173C1.62973 3.30217 3.4066 1.55107 5.63502 0.653809L6.51646 1.24352L8.37865 1.55388Z" fill="#03AA6F"/>
<path d="M8.99963 10.244L8.68927 11.7958L7.4478 13.0373V13.9684L6.20632 14.8995V16.4513L5.27524 16.141L4.65449 14.5891V11.4855L3.10265 11.1751L2.48193 9.93363V9.00252L3.10265 8.3818L4.03377 7.45068L4.65449 8.69216H6.82704L7.75816 10.244H8.99963Z" fill="#03AA6F"/>
<path d="M16.8516 4.60464C18.5459 7.62731 18.3529 11.3545 16.355 14.1857L15.5171 13.3477V12.1062L14.8963 10.8647L14.2756 9.62324V8.38177L13.3445 7.76105L12.103 8.07141L9.93048 7.14029L9.62012 4.96774L10.5512 4.03662H12.4134L13.0341 4.96774L14.8963 5.2781L16.7585 4.65738L16.8516 4.60464Z" fill="#03AA6F"/>
<path d="M10.8616 3.10606L12.1031 2.7957L13.0342 3.10606L14.586 3.41642L15.5171 2.7957C16.037 3.33978 16.4855 3.94777 16.8517 4.60512L16.7586 4.65789L14.8964 5.27861L13.0342 4.96825L12.4135 4.03714H10.5513L9.62018 4.96825L9.93053 7.14081L12.1031 8.07192L13.3446 7.76156L14.2757 8.38228V9.62376L14.8964 10.8652L15.5171 12.1067V13.3482L16.3551 14.1862C13.4889 18.2476 7.87276 19.2163 3.81161 16.35C0.362495 13.9155 -0.931433 9.41113 0.700172 5.5176L1.24021 7.14081L2.17132 7.76153L3.10244 8.38225L2.48168 9.003V9.93412L3.1024 11.1756L4.65424 11.486V14.5896L5.27496 16.1415L6.20607 16.4518V14.9L7.44755 13.9689V13.0378L8.68902 11.7963L8.99938 10.2444H7.75791L6.82679 8.69261H4.65424L4.03352 7.45113L3.10244 8.38225L3.1024 7.14077L2.48168 6.52009V5.58897L4.65424 5.27861L6.20607 4.3475L7.13719 2.79566L8.0683 2.4853L8.37866 1.55419L6.51647 1.24383L5.63503 0.654115C8.02176 -0.307094 10.7058 -0.200957 13.0093 0.945877L11.7927 1.55419H10.5512L9.9305 2.79566L10.8616 3.10606Z" fill="#86DAF1"/>
</g>
<defs>
<clipPath id="clip0_5655_3227">
<rect width="18" height="18" fill="white"/>
</clipPath>
</defs>
</svg>
