<svg width="18" height="18" viewBox="0 0 18 18" fill="none" xmlns="http://www.w3.org/2000/svg">
<g clip-path="url(#clip0_5655_3243)">
<path d="M9 18C13.9706 18 18 13.9706 18 9C18 4.02944 13.9706 0 9 0C4.02944 0 0 4.02944 0 9C0 13.9706 4.02944 18 9 18Z" fill="#D80027"/>
<path d="M9.92954 6.80829C9.725 7.65904 9.36159 7.49679 9.18324 8.23873C8.13266 7.98613 7.48565 6.92968 7.73825 5.87904C7.99074 4.82847 9.04729 4.18145 10.0979 4.43405C9.74117 5.91789 10.1125 6.0474 9.92954 6.80829Z" fill="#F0F0F0"/>
<path d="M7.20345 7.43915C7.94936 7.89654 7.68274 8.19209 8.3332 8.59101C7.76831 9.51214 6.56368 9.80095 5.64252 9.23609C4.72139 8.67124 4.43251 7.46654 4.9974 6.54541C6.29839 7.34318 6.53622 7.03004 7.20345 7.43915V7.43915Z" fill="#F0F0F0"/>
<path d="M6.96033 10.2263C7.62587 9.65828 7.82447 10.0032 8.40486 9.50781C9.10641 10.3297 9.00881 11.5646 8.187 12.2662C7.36512 12.9677 6.13015 12.87 5.42871 12.0482C6.58936 11.0574 6.36503 10.7344 6.96033 10.2263Z" fill="#F0F0F0"/>
<path d="M9.53638 11.3188C9.20169 10.5103 9.59108 10.4279 9.29932 9.72294C10.2977 9.30975 11.4421 9.78415 11.8554 10.7825C12.2685 11.781 11.7941 12.9253 10.7957 13.3385C10.2122 11.9285 9.8357 12.042 9.53638 11.3188Z" fill="#F0F0F0"/>
<path d="M11.3716 9.20646C10.4992 9.27491 10.5411 8.87905 9.7805 8.93874C9.69602 7.86159 10.5009 6.91972 11.5781 6.83517C12.6553 6.75083 13.5971 7.55563 13.6816 8.63288C12.1601 8.75217 12.1517 9.14532 11.3716 9.20646Z" fill="#F0F0F0"/>
</g>
<defs>
<clipPath id="clip0_5655_3243">
<rect width="18" height="18" fill="white"/>
</clipPath>
</defs>
</svg>
